<?xml version="1.0" encoding="utf-8"?>
<svg version="1.1" xmlns:xlink="http://www.w3.org/1999/xlink" width="19px" height="20px" xmlns="http://www.w3.org/2000/svg">
  <g transform="matrix(1 0 0 1 -15 -3945 )">
    <path d="M 14.1634114583333 12.16796875  C 14.2046440972222 12.20703125  14.2252604166667 12.2569444444444  14.2252604166667 12.3177083333333  L 14.2252604166667 13.7369791666667  C 14.2252604166667 14.1710069444444  14.0747612847222 14.5572916666667  13.7737630208333 14.8958333333333  C 13.4727647569444 15.234375  13.0851779513889 15.4969618055556  12.6110026041667 15.68359375  C 12.1368272569444 15.8702256944444  11.6502821180556 16.0112847222222  11.1513671875 16.1067708333333  C 10.6524522569444 16.2022569444444  10.16796875 16.25  9.69791666666667 16.25  C 8.00737847222222 16.25  6.59516059027778 15.6467013888889  5.46126302083333 14.4401041666667  C 4.32736545138889 13.2335069444444  3.76041666666667 11.7317708333333  3.76041666666667 9.93489583333333  C 3.76041666666667 8.17274305555556  4.32118055555556 6.70138888888889  5.44270833333333 5.52083333333333  C 6.56423611111111 4.34027777777778  7.96202256944444 3.75  9.63606770833333 3.75  C 9.91644965277778 3.75  10.2277560763889 3.76953125  10.5699869791667 3.80859375  C 10.9122178819444 3.84765625  11.2956814236111 3.92578125  11.7203776041667 4.04296875  C 12.1450737847222 4.16015625  12.5264756944444 4.30772569444444  12.8645833333333 4.48567708333333  C 13.2026909722222 4.66362847222222  13.4871961805556 4.90885416666667  13.7180989583333 5.22135416666667  C 13.9490017361111 5.53385416666667  14.064453125 5.88541666666667  14.064453125 6.27604166666667  L 14.064453125 7.6953125  C 14.064453125 7.83420138888889  13.9984809027778 7.90364583333333  13.8665364583333 7.90364583333333  L 12.4069010416667 7.90364583333333  C 12.2749565972222 7.90364583333333  12.208984375 7.83420138888889  12.208984375 7.6953125  L 12.208984375 6.78385416666667  C 12.208984375 6.41059027777778  11.9389105902778 6.11762152777778  11.3987630208333 5.90494791666667  C 10.8586154513889 5.69227430555555  10.2916666666667 5.5859375  9.69791666666667 5.5859375  C 8.54340277777778 5.5859375  7.60123697916667 5.98307291666667  6.87141927083333 6.77734375  C 6.1416015625 7.57161458333333  5.77669270833333 8.60243055555556  5.77669270833333 9.86979166666667  C 5.77669270833333 11.1805555555556  6.15397135416667 12.2634548611111  6.90852864583333 13.1184895833333  C 7.6630859375 13.9735243055556  8.62586805555556 14.4010416666667  9.796875 14.4010416666667  C 10.3576388888889 14.4010416666667  10.9266493055556 14.296875  11.50390625 14.0885416666667  C 12.0811631944444 13.8802083333333  12.3697916666667 13.59375  12.3697916666667 13.2291666666667  L 12.3697916666667 12.3177083333333  C 12.3697916666667 12.2569444444444  12.3883463541667 12.20703125  12.4254557291667 12.16796875  C 12.4625651041667 12.12890625  12.505859375 12.109375  12.5553385416667 12.109375  L 14.02734375 12.109375  C 14.0768229166667 12.109375  14.1221788194444 12.12890625  14.1634114583333 12.16796875  Z M 12.5738932291667 2.33072916666667  C 11.5966796875 1.88802083333333  10.5720486111111 1.66666666666667  9.5 1.66666666666667  C 8.42795138888889 1.66666666666667  7.4033203125 1.88802083333333  6.42610677083333 2.33072916666667  C 5.44889322916667 2.7734375  4.60774739583333 3.36588541666667  3.90266927083333 4.10807291666667  C 3.19759114583333 4.85026041666667  2.634765625 5.73567708333333  2.21419270833333 6.76432291666667  C 1.79361979166667 7.79296875  1.58333333333333 8.87152777777778  1.58333333333333 10  C 1.58333333333333 11.1284722222222  1.79361979166667 12.20703125  2.21419270833333 13.2356770833333  C 2.634765625 14.2643229166667  3.19759114583333 15.1497395833333  3.90266927083333 15.8919270833333  C 4.60774739583333 16.6341145833333  5.44889322916667 17.2265625  6.42610677083333 17.6692708333333  C 7.4033203125 18.1119791666667  8.42795138888889 18.3333333333333  9.5 18.3333333333333  C 10.5720486111111 18.3333333333333  11.5966796875 18.1119791666667  12.5738932291667 17.6692708333333  C 13.5511067708333 17.2265625  14.3922526041667 16.6341145833333  15.0973307291667 15.8919270833333  C 15.8024088541667 15.1497395833333  16.365234375 14.2643229166667  16.7858072916667 13.2356770833333  C 17.2063802083333 12.20703125  17.4166666666667 11.1284722222222  17.4166666666667 10  C 17.4166666666667 8.87152777777778  17.2063802083333 7.79296875  16.7858072916667 6.76432291666667  C 16.365234375 5.73567708333333  15.8024088541667 4.85026041666667  15.0973307291667 4.10807291666667  C 14.3922526041667 3.36588541666667  13.5511067708333 2.7734375  12.5738932291667 2.33072916666667  Z M 17.7259114583333 4.98046875  C 18.5753038194444 6.51258680555555  19 8.18576388888889  19 10  C 19 11.8142361111111  18.5753038194444 13.4874131944444  17.7259114583333 15.01953125  C 16.8765190972222 16.5516493055556  15.7240668402778 17.7647569444444  14.2685546875 18.6588541666667  C 12.8130425347222 19.5529513888889  11.2235243055556 20  9.5 20  C 7.77647569444444 20  6.18695746527778 19.5529513888889  4.7314453125 18.6588541666667  C 3.27593315972222 17.7647569444444  2.12348090277778 16.5516493055556  1.27408854166667 15.01953125  C 0.424696180555555 13.4874131944444  0 11.8142361111111  0 10  C 0 8.18576388888889  0.424696180555555 6.51258680555555  1.27408854166667 4.98046875  C 2.12348090277778 3.44835069444444  3.27593315972222 2.23524305555555  4.7314453125 1.34114583333333  C 6.18695746527778 0.447048611111109  7.77647569444444 0  9.5 0  C 11.2235243055556 0  12.8130425347222 0.447048611111109  14.2685546875 1.34114583333333  C 15.7240668402778 2.23524305555555  16.8765190972222 3.44835069444444  17.7259114583333 4.98046875  Z " fill-rule="nonzero" fill="#ffffff" stroke="none" transform="matrix(1 0 0 1 15 3945 )" />
  </g>
</svg>