<?xml version="1.0" encoding="utf-8"?>
<svg version="1.1" xmlns:xlink="http://www.w3.org/1999/xlink" width="19px" height="20px" xmlns="http://www.w3.org/2000/svg">
  <g transform="matrix(1 0 0 1 -878 -3884 )">
    <path d="M 11.541015625 11.6343669250646  C 11.8626302083333 11.2166236003445  12.0770399305556 11.0077519379845  12.1842447916667 11.0077519379845  C 12.2914496527778 11.0077519379845  12.6934678819444 11.1972437553833  13.3902994791667 11.5762273901809  C 14.0871310763889 11.9552110249785  14.4561631944444 12.1834625322997  14.4973958333333 12.2609819121447  C 14.5138888888889 12.3040482342808  14.5221354166667 12.3686477174849  14.5221354166667 12.4547803617571  C 14.5221354166667 12.7390180878553  14.4520399305556 13.0663221360896  14.3118489583333 13.4366925064599  C 14.1799045138889 13.7726098191214  13.8871527777778 14.0546942291128  13.43359375 14.2829457364341  C 12.9800347222222 14.5111972437554  12.5594618055556 14.625322997416  12.171875 14.625322997416  C 11.7018229166667 14.625322997416  10.9184027777778 14.3583118001723  9.82161458333333 13.8242894056848  C 9.01345486111111 13.4366925064599  8.3125 12.9285099052541  7.71875 12.2997416020672  C 7.125 11.6709732988803  6.51475694444444 10.8742463393626  5.88802083333333 9.90956072351421  C 5.29427083333333 8.98794142980189  5.00151909722222 8.15245478036176  5.009765625 7.4031007751938  L 5.009765625 7.29974160206718  C 5.03450520833333 6.51593453919035  5.33962673611111 5.83548664944014  5.92513020833333 5.25839793281654  C 6.123046875 5.06890611541774  6.33745659722222 4.97416020671835  6.568359375 4.97416020671835  C 6.61783854166667 4.97416020671835  6.69205729166667 4.98062015503876  6.791015625 4.99354005167959  C 6.88997395833333 5.00645994832041  6.96831597222222 5.01291989664083  7.02604166666667 5.01291989664083  C 7.18272569444444 5.01291989664083  7.2919921875 5.04091300602928  7.35384114583333 5.0968992248062  C 7.41569010416667 5.15288544358312  7.47960069444444 5.27131782945736  7.54557291666667 5.45219638242894  C 7.61154513888889 5.6244616709733  7.74761284722222 6.00344530577089  7.95377604166667 6.58914728682171  C 8.15993923611111 7.17484926787252  8.26302083333333 7.49784668389319  8.26302083333333 7.55813953488372  C 8.26302083333333 7.7390180878553  8.12076822916667 7.98664944013781  7.83626302083333 8.30103359173127  C 7.5517578125 8.61541774332472  7.40950520833333 8.81567614125754  7.40950520833333 8.90180878552972  C 7.40950520833333 8.96210163652024  7.43012152777778 9.02670111972437  7.47135416666667 9.09560723514212  C 7.75173611111111 9.72437553832903  8.17230902777778 10.3143841515935  8.73307291666667 10.8656330749354  C 9.19487847222222 11.3221360895779  9.81749131944445 11.7571059431525  10.6009114583333 12.1705426356589  C 10.6998697916667 12.2308354866494  10.7905815972222 12.2609819121447  10.873046875 12.2609819121447  C 10.9967447916667 12.2609819121447  11.2194010416667 12.0521102497847  11.541015625 11.6343669250646  Z M 5.40559895833333 16.5116279069767  C 6.70855034722222 17.4074074074074  8.13107638888889 17.8552971576227  9.67317708333333 17.8552971576227  C 10.7204861111111 17.8552971576227  11.7245008680556 17.6399655469423  12.6852213541667 17.2093023255814  C 13.6459418402778 16.7786391042205  14.47265625 16.2015503875969  15.1653645833333 15.4780361757106  C 15.8580729166667 14.7545219638243  16.4105902777778 13.8910422049957  16.8229166666667 12.8875968992248  C 17.2352430555556 11.8841515934539  17.44140625 10.8354866494401  17.44140625 9.74160206718346  C 17.44140625 8.64771748492679  17.2352430555556 7.59905254091301  16.8229166666667 6.59560723514212  C 16.4105902777778 5.59216192937123  15.8580729166667 4.72868217054264  15.1653645833333 4.00516795865633  C 14.47265625 3.28165374677003  13.6459418402778 2.70456503014642  12.6852213541667 2.27390180878553  C 11.7245008680556 1.84323858742463  10.7204861111111 1.62790697674419  9.67317708333333 1.62790697674419  C 8.62586805555556 1.62790697674419  7.62185329861111 1.84323858742463  6.6611328125 2.27390180878553  C 5.70041232638889 2.70456503014642  4.87369791666667 3.28165374677003  4.18098958333333 4.00516795865633  C 3.48828125 4.72868217054264  2.93576388888889 5.59216192937123  2.5234375 6.59560723514212  C 2.11111111111111 7.59905254091301  1.90494791666667 8.64771748492679  1.90494791666667 9.74160206718346  C 1.90494791666667 11.4900947459087  2.39973958333333 13.0749354005168  3.38932291666667 14.4961240310078  L 2.412109375 17.5064599483204  L 5.40559895833333 16.5116279069767  Z M 6.05501302083333 0.775193798449612  C 7.20540364583333 0.258397932816536  8.41145833333333 0  9.67317708333333 0  C 10.9348958333333 0  12.1409505208333 0.258397932816536  13.2913411458333 0.775193798449612  C 14.4417317708333 1.29198966408269  15.4333767361111 1.98535745047373  16.2662760416667 2.85529715762274  C 17.0991753472222 3.72523686477175  17.7630208333333 4.7609819121447  18.2578125 5.9625322997416  C 18.7526041666667 7.1640826873385  19 8.42377260981912  19 9.74160206718346  C 19 11.0594315245478  18.7526041666667 12.3191214470284  18.2578125 13.5206718346253  C 17.7630208333333 14.7222222222222  17.0991753472222 15.7579672695952  16.2662760416667 16.6279069767442  C 15.4333767361111 17.4978466838932  14.4417317708333 18.1912144702842  13.2913411458333 18.7080103359173  C 12.1409505208333 19.2248062015504  10.9348958333333 19.4832041343669  9.67317708333333 19.4832041343669  C 8.06510416666667 19.4832041343669  6.56011284722222 19.0783807062877  5.158203125 18.2687338501292  L 0 20  L 1.68229166666667 14.7674418604651  C 0.791666666666667 13.2342807924203  0.346354166666667 11.5590008613264  0.346354166666667 9.74160206718346  C 0.346354166666667 8.42377260981912  0.59375 7.1640826873385  1.08854166666667 5.9625322997416  C 1.58333333333333 4.7609819121447  2.24717881944444 3.72523686477175  3.080078125 2.85529715762274  C 3.91297743055556 1.98535745047373  4.90462239583333 1.29198966408269  6.05501302083333 0.775193798449612  Z " fill-rule="nonzero" fill="#70b603" stroke="none" transform="matrix(1 0 0 1 878 3884 )" />
  </g>
</svg>