<?xml version="1.0" encoding="utf-8"?>
<svg version="1.1" xmlns:xlink="http://www.w3.org/1999/xlink" width="10px" height="11px" xmlns="http://www.w3.org/2000/svg">
  <g transform="matrix(1 0 0 1 -140 -1938 )">
    <path d="M 3.61778846153846 9.296875  C 3.77003205128205 9.49479166666667  3.84615384615385 9.72916666666667  3.84615384615385 10  C 3.84615384615385 10.2708333333333  3.77003205128205 10.5052083333333  3.61778846153846 10.703125  C 3.46554487179487 10.9010416666667  3.28525641025641 11  3.07692307692308 11  C 2.86858974358974 11  2.68830128205128 10.9010416666667  2.53605769230769 10.703125  C 2.3838141025641 10.5052083333333  2.30769230769231 10.2708333333333  2.30769230769231 10  C 2.30769230769231 9.72916666666667  2.3838141025641 9.49479166666667  2.53605769230769 9.296875  C 2.68830128205128 9.09895833333333  2.86858974358974 9  3.07692307692308 9  C 3.28525641025641 9  3.46554487179487 9.09895833333333  3.61778846153846 9.296875  Z M 9.00240384615385 9.296875  C 9.15464743589743 9.49479166666667  9.23076923076923 9.72916666666667  9.23076923076923 10  C 9.23076923076923 10.2708333333333  9.15464743589743 10.5052083333333  9.00240384615385 10.703125  C 8.85016025641026 10.9010416666667  8.6698717948718 11  8.46153846153846 11  C 8.25320512820513 11  8.07291666666667 10.9010416666667  7.92067307692308 10.703125  C 7.76842948717949 10.5052083333333  7.69230769230769 10.2708333333333  7.69230769230769 10  C 7.69230769230769 9.72916666666667  7.76842948717949 9.49479166666667  7.92067307692308 9.296875  C 8.07291666666667 9.09895833333333  8.25320512820513 9  8.46153846153846 9  C 8.6698717948718 9  8.85016025641026 9.09895833333333  9.00240384615385 9.296875  Z M 9.88581730769231 1.1484375  C 9.9619391025641 1.24739583333333  10 1.36458333333333  10 1.5  L 10 5.5  C 10 5.625  9.96694711538462 5.73567708333333  9.90084134615385 5.83203125  C 9.83473557692308 5.92838541666667  9.75360576923077 5.984375  9.65745192307692 6  L 3.38341346153846 6.953125  C 3.4354967948718 7.265625  3.46153846153846 7.44791666666667  3.46153846153846 7.5  C 3.46153846153846 7.58333333333333  3.41346153846154 7.75  3.31730769230769 8  L 8.84615384615385 8  C 8.95032051282051 8  9.04046474358974 8.04947916666667  9.11658653846154 8.1484375  C 9.19270833333333 8.24739583333333  9.23076923076923 8.36458333333333  9.23076923076923 8.5  C 9.23076923076923 8.63541666666667  9.19270833333333 8.75260416666667  9.11658653846154 8.8515625  C 9.04046474358974 8.95052083333333  8.95032051282051 9  8.84615384615385 9  L 2.69230769230769 9  C 2.58814102564103 9  2.49799679487179 8.95052083333333  2.421875 8.8515625  C 2.34575320512821 8.75260416666667  2.30769230769231 8.63541666666667  2.30769230769231 8.5  C 2.30769230769231 8.44270833333333  2.32371794871795 8.36067708333333  2.35576923076923 8.25390625  C 2.38782051282051 8.14713541666667  2.41987179487179 8.05338541666667  2.45192307692308 7.97265625  C 2.48397435897436 7.89192708333333  2.52704326923077 7.78776041666667  2.58112980769231 7.66015625  C 2.63521634615385 7.53255208333333  2.66626602564103 7.45572916666667  2.67427884615385 7.4296875  L 1.61057692307692 1  L 0.384615384615385 1  C 0.280448717948718 1  0.190304487179487 0.950520833333332  0.114182692307692 0.8515625  C 0.0380608974358974 0.752604166666666  0 0.635416666666666  0 0.5  C 0 0.364583333333333  0.0380608974358974 0.247395833333332  0.114182692307692 0.148437500000001  C 0.190304487179487 0.0494791666666656  0.280448717948718 0  0.384615384615385 0  L 1.92307692307692 0  C 1.98717948717949 0  2.04427083333333 0.0169270833333326  2.09435096153846 0.0507812500000002  C 2.14443108974359 0.0846354166666666  2.18349358974359 0.125  2.21153846153846 0.171875  C 2.23958333333333 0.21875  2.265625 0.282552083333332  2.28966346153846 0.363281250000001  C 2.31370192307692 0.444010416666666  2.32972756410256 0.51171875  2.33774038461538 0.56640625  C 2.34575320512821 0.621093750000001  2.35677083333333 0.697916666666666  2.37079326923077 0.796874999999999  C 2.38481570512821 0.895833333333332  2.39383012820513 0.963541666666666  2.39783653846154 1  L 9.61538461538462 1  C 9.71955128205128 1  9.80969551282051 1.04947916666667  9.88581730769231 1.1484375  Z " fill-rule="nonzero" fill="#000000" stroke="none" transform="matrix(1 0 0 1 140 1938 )" />
  </g>
</svg>