<?xml version="1.0" encoding="utf-8"?>
<svg version="1.1" xmlns:xlink="http://www.w3.org/1999/xlink" width="10px" height="12px" xmlns="http://www.w3.org/2000/svg">
  <g transform="matrix(1 0 0 1 -141 -2111 )">
    <path d="M 3.61778846153846 10.1420454545455  C 3.77003205128205 10.3579545454545  3.84615384615385 10.6136363636364  3.84615384615385 10.9090909090909  C 3.84615384615385 11.2045454545455  3.77003205128205 11.4602272727273  3.61778846153846 11.6761363636364  C 3.46554487179487 11.8920454545455  3.28525641025641 12  3.07692307692308 12  C 2.86858974358974 12  2.68830128205128 11.8920454545455  2.53605769230769 11.6761363636364  C 2.3838141025641 11.4602272727273  2.30769230769231 11.2045454545455  2.30769230769231 10.9090909090909  C 2.30769230769231 10.6136363636364  2.3838141025641 10.3579545454545  2.53605769230769 10.1420454545455  C 2.68830128205128 9.92613636363637  2.86858974358974 9.81818181818182  3.07692307692308 9.81818181818182  C 3.28525641025641 9.81818181818182  3.46554487179487 9.92613636363637  3.61778846153846 10.1420454545455  Z M 9.00240384615385 10.1420454545455  C 9.15464743589743 10.3579545454545  9.23076923076923 10.6136363636364  9.23076923076923 10.9090909090909  C 9.23076923076923 11.2045454545455  9.15464743589743 11.4602272727273  9.00240384615385 11.6761363636364  C 8.85016025641026 11.8920454545455  8.6698717948718 12  8.46153846153846 12  C 8.25320512820513 12  8.07291666666667 11.8920454545455  7.92067307692308 11.6761363636364  C 7.76842948717949 11.4602272727273  7.69230769230769 11.2045454545455  7.69230769230769 10.9090909090909  C 7.69230769230769 10.6136363636364  7.76842948717949 10.3579545454545  7.92067307692308 10.1420454545455  C 8.07291666666667 9.92613636363637  8.25320512820513 9.81818181818182  8.46153846153846 9.81818181818182  C 8.6698717948718 9.81818181818182  8.85016025641026 9.92613636363637  9.00240384615385 10.1420454545455  Z M 9.88581730769231 1.25284090909091  C 9.9619391025641 1.36079545454545  10 1.48863636363636  10 1.63636363636364  L 10 6  C 10 6.13636363636364  9.96694711538462 6.25710227272727  9.90084134615385 6.36221590909091  C 9.83473557692308 6.46732954545454  9.75360576923077 6.52840909090909  9.65745192307692 6.54545454545455  L 3.38341346153846 7.58522727272727  C 3.4354967948718 7.92613636363636  3.46153846153846 8.125  3.46153846153846 8.18181818181818  C 3.46153846153846 8.27272727272727  3.41346153846154 8.45454545454546  3.31730769230769 8.72727272727273  L 8.84615384615385 8.72727272727273  C 8.95032051282051 8.72727272727273  9.04046474358974 8.78125  9.11658653846154 8.88920454545455  C 9.19270833333333 8.99715909090909  9.23076923076923 9.125  9.23076923076923 9.27272727272727  C 9.23076923076923 9.42045454545454  9.19270833333333 9.54829545454545  9.11658653846154 9.65625  C 9.04046474358974 9.76420454545455  8.95032051282051 9.81818181818182  8.84615384615385 9.81818181818182  L 2.69230769230769 9.81818181818182  C 2.58814102564103 9.81818181818182  2.49799679487179 9.76420454545455  2.421875 9.65625  C 2.34575320512821 9.54829545454545  2.30769230769231 9.42045454545454  2.30769230769231 9.27272727272727  C 2.30769230769231 9.21022727272727  2.32371794871795 9.12073863636364  2.35576923076923 9.00426136363636  C 2.38782051282051 8.88778409090909  2.41987179487179 8.78551136363636  2.45192307692308 8.69744318181818  C 2.48397435897436 8.609375  2.52704326923077 8.49573863636364  2.58112980769231 8.35653409090909  C 2.63521634615385 8.21732954545454  2.66626602564103 8.13352272727273  2.67427884615385 8.10511363636364  L 1.61057692307692 1.09090909090909  L 0.384615384615385 1.09090909090909  C 0.280448717948718 1.09090909090909  0.190304487179487 1.03693181818182  0.114182692307692 0.928977272727272  C 0.0380608974358974 0.821022727272727  0 0.693181818181818  0 0.545454545454545  C 0 0.397727272727272  0.0380608974358974 0.269886363636362  0.114182692307692 0.161931818181819  C 0.190304487179487 0.0539772727272716  0.280448717948718 0  0.384615384615385 0  L 1.92307692307692 0  C 1.98717948717949 0  2.04427083333333 0.0184659090909083  2.09435096153846 0.0553977272727275  C 2.14443108974359 0.0923295454545454  2.18349358974359 0.136363636363636  2.21153846153846 0.1875  C 2.23958333333333 0.238636363636364  2.265625 0.308238636363634  2.28966346153846 0.396306818181819  C 2.31370192307692 0.484374999999999  2.32972756410256 0.558238636363636  2.33774038461538 0.617897727272728  C 2.34575320512821 0.677556818181819  2.35677083333333 0.761363636363635  2.37079326923077 0.869318181818181  C 2.38481570512821 0.977272727272726  2.39383012820513 1.05113636363636  2.39783653846154 1.09090909090909  L 9.61538461538462 1.09090909090909  C 9.71955128205128 1.09090909090909  9.80969551282051 1.14488636363636  9.88581730769231 1.25284090909091  Z " fill-rule="nonzero" fill="#000000" stroke="none" transform="matrix(1 0 0 1 141 2111 )" />
  </g>
</svg>