<?xml version="1.0" encoding="utf-8"?>
<svg version="1.1" xmlns:xlink="http://www.w3.org/1999/xlink" width="13px" height="11px" xmlns="http://www.w3.org/2000/svg">
  <g transform="matrix(1 0 0 1 -173 -17 )">
    <path d="M 4.703125 9.296875  C 4.90104166666667 9.49479166666667  5 9.72916666666667  5 10  C 5 10.2708333333333  4.90104166666667 10.5052083333333  4.703125 10.703125  C 4.50520833333333 10.9010416666667  4.27083333333333 11  4 11  C 3.72916666666667 11  3.49479166666667 10.9010416666667  3.296875 10.703125  C 3.09895833333333 10.5052083333333  3 10.2708333333333  3 10  C 3 9.72916666666667  3.09895833333333 9.49479166666667  3.296875 9.296875  C 3.49479166666667 9.09895833333333  3.72916666666667 9  4 9  C 4.27083333333333 9  4.50520833333333 9.09895833333333  4.703125 9.296875  Z M 11.703125 9.296875  C 11.9010416666667 9.49479166666667  12 9.72916666666667  12 10  C 12 10.2708333333333  11.9010416666667 10.5052083333333  11.703125 10.703125  C 11.5052083333333 10.9010416666667  11.2708333333333 11  11 11  C 10.7291666666667 11  10.4947916666667 10.9010416666667  10.296875 10.703125  C 10.0989583333333 10.5052083333333  10 10.2708333333333  10 10  C 10 9.72916666666667  10.0989583333333 9.49479166666667  10.296875 9.296875  C 10.4947916666667 9.09895833333333  10.7291666666667 9  11 9  C 11.2708333333333 9  11.5052083333333 9.09895833333333  11.703125 9.296875  Z M 12.8515625 1.1484375  C 12.9505208333333 1.24739583333333  13 1.36458333333333  13 1.5  L 13 5.5  C 13 5.625  12.95703125 5.73567708333333  12.87109375 5.83203125  C 12.78515625 5.92838541666667  12.6796875 5.984375  12.5546875 6  L 4.3984375 6.953125  C 4.46614583333333 7.265625  4.5 7.44791666666667  4.5 7.5  C 4.5 7.58333333333333  4.4375 7.75  4.3125 8  L 11.5 8  C 11.6354166666667 8  11.7526041666667 8.04947916666667  11.8515625 8.1484375  C 11.9505208333333 8.24739583333333  12 8.36458333333333  12 8.5  C 12 8.63541666666667  11.9505208333333 8.75260416666667  11.8515625 8.8515625  C 11.7526041666667 8.95052083333333  11.6354166666667 9  11.5 9  L 3.5 9  C 3.36458333333333 9  3.24739583333333 8.95052083333333  3.1484375 8.8515625  C 3.04947916666667 8.75260416666667  3 8.63541666666667  3 8.5  C 3 8.44270833333333  3.02083333333333 8.36067708333333  3.0625 8.25390625  C 3.10416666666667 8.14713541666667  3.14583333333333 8.05338541666667  3.1875 7.97265625  C 3.22916666666667 7.89192708333333  3.28515625 7.78776041666667  3.35546875 7.66015625  C 3.42578125 7.53255208333333  3.46614583333333 7.45572916666667  3.4765625 7.4296875  L 2.09375 1  L 0.5 1  C 0.364583333333333 1  0.247395833333333 0.950520833333332  0.1484375 0.8515625  C 0.0494791666666667 0.752604166666666  0 0.635416666666666  0 0.5  C 0 0.364583333333333  0.0494791666666667 0.247395833333332  0.1484375 0.148437500000001  C 0.247395833333333 0.0494791666666656  0.364583333333333 0  0.5 0  L 2.5 0  C 2.58333333333333 0  2.65755208333333 0.0169270833333326  2.72265625 0.0507812500000002  C 2.78776041666667 0.0846354166666666  2.83854166666667 0.125  2.875 0.171875  C 2.91145833333333 0.21875  2.9453125 0.282552083333332  2.9765625 0.363281250000001  C 3.0078125 0.444010416666666  3.02864583333333 0.51171875  3.0390625 0.56640625  C 3.04947916666667 0.621093750000001  3.06380208333333 0.697916666666666  3.08203125 0.796874999999999  C 3.10026041666667 0.895833333333332  3.11197916666667 0.963541666666666  3.1171875 1  L 12.5 1  C 12.6354166666667 1  12.7526041666667 1.04947916666667  12.8515625 1.1484375  Z " fill-rule="nonzero" fill="#000000" stroke="none" transform="matrix(1 0 0 1 173 17 )" />
  </g>
</svg>