<?xml version="1.0" encoding="utf-8"?>
<svg version="1.1" xmlns:xlink="http://www.w3.org/1999/xlink" width="11px" height="11px" xmlns="http://www.w3.org/2000/svg">
  <g transform="matrix(1 0 0 1 -81 -17 )">
    <path d="M 10.926953125 7.95279947916667  C 10.9756510416667 8.31325954861111  11 8.69639756944444  11 9.10221354166667  C 11 9.62261284722222  10.8209635416667 10.0690104166667  10.462890625 10.44140625  C 10.1048177083333 10.8138020833333  9.67369791666667 11  9.16953125 11  L 1.83046875 11  C 1.32630208333333 11  0.895182291666667 10.8138020833333  0.537109375 10.44140625  C 0.179036458333333 10.0690104166667  0 9.62261284722222  0 9.10221354166667  C 0 8.69639756944444  0.0243489583333334 8.31325954861111  0.0730468750000001 7.95279947916667  C 0.121744791666667 7.59233940972222  0.211979166666667 7.2294921875  0.34375 6.8642578125  C 0.475520833333334 6.4990234375  0.643098958333333 6.18630642361111  0.846484375 5.92610677083333  C 1.04986979166667 5.66590711805555  1.319140625 5.45345052083333  1.654296875 5.28873697916667  C 1.989453125 5.1240234375  2.37473958333333 5.04166666666667  2.81015625 5.04166666666667  C 3.56067708333333 5.65277777777778  4.45729166666667 5.95833333333333  5.5 5.95833333333333  C 6.54270833333334 5.95833333333333  7.43932291666667 5.65277777777778  8.18984375 5.04166666666667  C 8.62526041666667 5.04166666666667  9.010546875 5.1240234375  9.345703125 5.28873697916667  C 9.680859375 5.45345052083333  9.95013020833333 5.66590711805555  10.153515625 5.92610677083333  C 10.3569010416667 6.18630642361111  10.5244791666667 6.4990234375  10.65625 6.8642578125  C 10.7880208333333 7.2294921875  10.8782552083333 7.59233940972222  10.926953125 7.95279947916667  Z M 7.833203125 0.8056640625  C 8.477734375 1.3427734375  8.8 1.99088541666667  8.8 2.75  C 8.8 3.50911458333333  8.477734375 4.1572265625  7.833203125 4.6943359375  C 7.188671875 5.2314453125  6.4109375 5.5  5.5 5.5  C 4.5890625 5.5  3.811328125 5.2314453125  3.166796875 4.6943359375  C 2.522265625 4.1572265625  2.2 3.50911458333333  2.2 2.75  C 2.2 1.99088541666667  2.522265625 1.3427734375  3.166796875 0.8056640625  C 3.811328125 0.2685546875  4.5890625 0  5.5 0  C 6.4109375 0  7.188671875 0.2685546875  7.833203125 0.8056640625  Z " fill-rule="nonzero" fill="#000000" stroke="none" transform="matrix(1 0 0 1 81 17 )" />
  </g>
</svg>