<?xml version="1.0" encoding="utf-8"?>
<svg version="1.1" xmlns:xlink="http://www.w3.org/1999/xlink" width="9px" height="10px" xmlns="http://www.w3.org/2000/svg">
  <g transform="matrix(1 0 0 1 -232 -17 )">
    <path d="M 5.947265625 8.27473958333333  C 5.982421875 8.23567708333333  6 8.18576388888889  6 8.125  L 6 7.08333333333333  C 6 7.02256944444444  5.982421875 6.97265625  5.947265625 6.93359375  C 5.912109375 6.89453125  5.8671875 6.875  5.8125 6.875  L 5.25 6.875  L 5.25 3.54166666666667  C 5.25 3.48090277777778  5.232421875 3.43098958333333  5.197265625 3.39192708333333  C 5.162109375 3.35286458333333  5.1171875 3.33333333333333  5.0625 3.33333333333333  L 3.1875 3.33333333333333  C 3.1328125 3.33333333333333  3.087890625 3.35286458333333  3.052734375 3.39192708333333  C 3.017578125 3.43098958333333  3 3.48090277777778  3 3.54166666666667  L 3 4.58333333333333  C 3 4.64409722222222  3.017578125 4.69401041666667  3.052734375 4.73307291666667  C 3.087890625 4.77213541666667  3.1328125 4.79166666666667  3.1875 4.79166666666667  L 3.75 4.79166666666667  L 3.75 6.875  L 3.1875 6.875  C 3.1328125 6.875  3.087890625 6.89453125  3.052734375 6.93359375  C 3.017578125 6.97265625  3 7.02256944444444  3 7.08333333333333  L 3 8.125  C 3 8.18576388888889  3.017578125 8.23567708333333  3.052734375 8.27473958333333  C 3.087890625 8.31380208333333  3.1328125 8.33333333333333  3.1875 8.33333333333333  L 5.8125 8.33333333333333  C 5.8671875 8.33333333333333  5.912109375 8.31380208333333  5.947265625 8.27473958333333  Z M 5.197265625 2.44140625  C 5.232421875 2.40234375  5.25 2.35243055555555  5.25 2.29166666666667  L 5.25 1.25  C 5.25 1.18923611111111  5.232421875 1.13932291666667  5.197265625 1.10026041666667  C 5.162109375 1.06119791666667  5.1171875 1.04166666666667  5.0625 1.04166666666667  L 3.9375 1.04166666666667  C 3.8828125 1.04166666666667  3.837890625 1.06119791666667  3.802734375 1.10026041666667  C 3.767578125 1.13932291666667  3.75 1.18923611111111  3.75 1.25  L 3.75 2.29166666666667  C 3.75 2.35243055555555  3.767578125 2.40234375  3.802734375 2.44140625  C 3.837890625 2.48046875  3.8828125 2.5  3.9375 2.5  L 5.0625 2.5  C 5.1171875 2.5  5.162109375 2.48046875  5.197265625 2.44140625  Z M 8.396484375 2.490234375  C 8.798828125 3.25629340277778  9 4.09288194444444  9 5  C 9 5.90711805555556  8.798828125 6.74370659722222  8.396484375 7.509765625  C 7.994140625 8.27582465277778  7.4482421875 8.88237847222222  6.7587890625 9.32942708333333  C 6.0693359375 9.77647569444444  5.31640625 10  4.5 10  C 3.68359375 10  2.9306640625 9.77647569444444  2.2412109375 9.32942708333333  C 1.5517578125 8.88237847222222  1.005859375 8.27582465277778  0.603515625 7.509765625  C 0.201171875 6.74370659722222  0 5.90711805555556  0 5  C 0 4.09288194444444  0.201171875 3.25629340277778  0.603515625 2.490234375  C 1.005859375 1.72417534722222  1.5517578125 1.11762152777778  2.2412109375 0.670572916666666  C 2.9306640625 0.223524305555555  3.68359375 0  4.5 0  C 5.31640625 0  6.0693359375 0.223524305555555  6.7587890625 0.670572916666666  C 7.4482421875 1.11762152777778  7.994140625 1.72417534722222  8.396484375 2.490234375  Z " fill-rule="nonzero" fill="#000000" stroke="none" transform="matrix(1 0 0 1 232 17 )" />
  </g>
</svg>