<?xml version="1.0" encoding="utf-8"?>
<svg version="1.1" xmlns:xlink="http://www.w3.org/1999/xlink" width="15px" height="12px" xmlns="http://www.w3.org/2000/svg">
  <g transform="matrix(1 0 0 1 -139 -151 )">
    <path d="M 0.9375 5.14285714285714  L 14.0625 5.14285714285714  C 14.3212890625 5.14285714285714  14.542236328125 5.2265625  14.725341796875 5.39397321428572  C 14.908447265625 5.56138392857143  15 5.76339285714286  15 6  C 15 6.23660714285714  14.908447265625 6.43861607142857  14.725341796875 6.60602678571429  C 14.542236328125 6.7734375  14.3212890625 6.85714285714286  14.0625 6.85714285714286  L 13.95263671875 6.85714285714286  L 13.1103515625 11.2901785714286  C 13.0712890625 11.4955357142857  12.9638671875 11.6651785714286  12.7880859375 11.7991071428571  C 12.6123046875 11.9330357142857  12.412109375 12  12.1875 12  L 2.8125 12  C 2.587890625 12  2.3876953125 11.9330357142857  2.2119140625 11.7991071428571  C 2.0361328125 11.6651785714286  1.9287109375 11.4955357142857  1.8896484375 11.2901785714286  L 1.04736328125 6.85714285714286  L 0.9375 6.85714285714286  C 0.6787109375 6.85714285714286  0.457763671875 6.7734375  0.274658203125 6.60602678571429  C 0.091552734375 6.43861607142857  0 6.23660714285714  0 6  C 0 5.76339285714286  0.091552734375 5.56138392857143  0.274658203125 5.39397321428572  C 0.457763671875 5.2265625  0.6787109375 5.14285714285714  0.9375 5.14285714285714  Z M 3.515625 10.5  L 3.55224609375 10.5  C 3.67919921875 10.4910714285714  3.785400390625 10.4408482142857  3.870849609375 10.3493303571429  C 3.956298828125 10.2578125  3.994140625 10.1540178571429  3.984375 10.0379464285714  L 3.75 7.25223214285714  C 3.740234375 7.13616071428571  3.685302734375 7.0390625  3.585205078125 6.9609375  C 3.485107421875 6.8828125  3.37158203125 6.84821428571428  3.24462890625 6.85714285714286  C 3.11767578125 6.86607142857143  3.011474609375 6.91629464285714  2.926025390625 7.0078125  C 2.840576171875 7.09933035714286  2.802734375 7.203125  2.8125 7.31919642857143  L 3.046875 10.1049107142857  C 3.056640625 10.2165178571429  3.106689453125 10.3102678571429  3.197021484375 10.3861607142857  C 3.287353515625 10.4620535714286  3.3935546875 10.5  3.515625 10.5  Z M 6.42333984375 10.3727678571429  C 6.51611328125 10.2879464285714  6.5625 10.1875  6.5625 10.0714285714286  L 6.5625 7.28571428571429  C 6.5625 7.16964285714286  6.51611328125 7.06919642857143  6.42333984375 6.984375  C 6.33056640625 6.89955357142857  6.220703125 6.85714285714286  6.09375 6.85714285714286  C 5.966796875 6.85714285714286  5.85693359375 6.89955357142857  5.76416015625 6.984375  C 5.67138671875 7.06919642857143  5.625 7.16964285714286  5.625 7.28571428571429  L 5.625 10.0714285714286  C 5.625 10.1875  5.67138671875 10.2879464285714  5.76416015625 10.3727678571429  C 5.85693359375 10.4575892857143  5.966796875 10.5  6.09375 10.5  C 6.220703125 10.5  6.33056640625 10.4575892857143  6.42333984375 10.3727678571429  Z M 9.23583984375 10.3727678571429  C 9.32861328125 10.2879464285714  9.375 10.1875  9.375 10.0714285714286  L 9.375 7.28571428571429  C 9.375 7.16964285714286  9.32861328125 7.06919642857143  9.23583984375 6.984375  C 9.14306640625 6.89955357142857  9.033203125 6.85714285714286  8.90625 6.85714285714286  C 8.779296875 6.85714285714286  8.66943359375 6.89955357142857  8.57666015625 6.984375  C 8.48388671875 7.06919642857143  8.4375 7.16964285714286  8.4375 7.28571428571429  L 8.4375 10.0714285714286  C 8.4375 10.1875  8.48388671875 10.2879464285714  8.57666015625 10.3727678571429  C 8.66943359375 10.4575892857143  8.779296875 10.5  8.90625 10.5  C 9.033203125 10.5  9.14306640625 10.4575892857143  9.23583984375 10.3727678571429  Z M 11.802978515625 10.3861607142857  C 11.893310546875 10.3102678571429  11.943359375 10.2165178571429  11.953125 10.1049107142857  L 12.1875 7.31919642857143  C 12.197265625 7.203125  12.159423828125 7.09933035714286  12.073974609375 7.0078125  C 11.988525390625 6.91629464285714  11.88232421875 6.86607142857143  11.75537109375 6.85714285714286  C 11.62841796875 6.84821428571428  11.514892578125 6.8828125  11.414794921875 6.9609375  C 11.314697265625 7.0390625  11.259765625 7.13616071428571  11.25 7.25223214285714  L 11.015625 10.0379464285714  C 11.005859375 10.1540178571429  11.043701171875 10.2578125  11.129150390625 10.3493303571429  C 11.214599609375 10.4408482142857  11.32080078125 10.4910714285714  11.44775390625 10.5  L 11.484375 10.5  C 11.6064453125 10.5  11.712646484375 10.4620535714286  11.802978515625 10.3861607142857  Z M 3.819580078125 1.47321428571429  C 3.651123046875 1.59821428571428  3.5400390625 1.75892857142857  3.486328125 1.95535714285714  L 2.80517578125 4.71428571428572  L 1.83837890625 4.71428571428572  L 2.578125 1.76116071428571  C 2.6708984375 1.36830357142857  2.88818359375 1.04799107142857  3.22998046875 0.800223214285715  C 3.57177734375 0.552455357142857  3.96240234375 0.428571428571428  4.40185546875 0.428571428571428  L 5.625 0.428571428571428  C 5.625 0.3125  5.67138671875 0.21205357142857  5.76416015625 0.127232142857143  C 5.85693359375 0.0424107142857153  5.966796875 0  6.09375 0  L 8.90625 0  C 9.033203125 0  9.14306640625 0.0424107142857153  9.23583984375 0.127232142857143  C 9.32861328125 0.21205357142857  9.375 0.3125  9.375 0.428571428571428  L 10.59814453125 0.428571428571428  C 11.03759765625 0.428571428571428  11.42822265625 0.552455357142857  11.77001953125 0.800223214285715  C 12.11181640625 1.04799107142857  12.3291015625 1.36830357142857  12.421875 1.76116071428571  L 13.16162109375 4.71428571428572  L 12.19482421875 4.71428571428572  L 11.513671875 1.95535714285714  C 11.4599609375 1.75892857142857  11.348876953125 1.59821428571428  11.180419921875 1.47321428571429  C 11.011962890625 1.34821428571429  10.81787109375 1.28571428571429  10.59814453125 1.28571428571429  L 9.375 1.28571428571429  C 9.375 1.40178571428571  9.32861328125 1.50223214285714  9.23583984375 1.58705357142857  C 9.14306640625 1.671875  9.033203125 1.71428571428571  8.90625 1.71428571428571  L 6.09375 1.71428571428571  C 5.966796875 1.71428571428571  5.85693359375 1.671875  5.76416015625 1.58705357142857  C 5.67138671875 1.50223214285714  5.625 1.40178571428571  5.625 1.28571428571429  L 4.40185546875 1.28571428571429  C 4.18212890625 1.28571428571429  3.988037109375 1.34821428571429  3.819580078125 1.47321428571429  Z " fill-rule="nonzero" fill="#000000" stroke="none" transform="matrix(1 0 0 1 139 151 )" />
  </g>
</svg>