<?xml version="1.0" encoding="utf-8"?>
<svg version="1.1" xmlns:xlink="http://www.w3.org/1999/xlink" width="14px" height="10px" xmlns="http://www.w3.org/2000/svg">
  <g transform="matrix(1 0 0 1 -295 -145 )">
    <path d="M 0.875 4.28571428571429  L 13.125 4.28571428571429  C 13.3665364583333 4.28571428571429  13.57275390625 4.35546875  13.74365234375 4.49497767857143  C 13.91455078125 4.63448660714286  14 4.80282738095238  14 5  C 14 5.19717261904762  13.91455078125 5.36551339285714  13.74365234375 5.50502232142857  C 13.57275390625 5.64453125  13.3665364583333 5.71428571428571  13.125 5.71428571428571  L 13.0224609375 5.71428571428571  L 12.236328125 9.40848214285714  C 12.1998697916667 9.57961309523809  12.099609375 9.72098214285714  11.935546875 9.83258928571429  C 11.771484375 9.94419642857143  11.5846354166667 10  11.375 10  L 2.625 10  C 2.41536458333333 10  2.228515625 9.94419642857143  2.064453125 9.83258928571429  C 1.900390625 9.72098214285714  1.80013020833333 9.57961309523809  1.763671875 9.40848214285714  L 0.9775390625 5.71428571428571  L 0.875 5.71428571428571  C 0.633463541666667 5.71428571428571  0.42724609375 5.64453125  0.25634765625 5.50502232142857  C 0.08544921875 5.36551339285714  0 5.19717261904762  0 5  C 0 4.80282738095238  0.08544921875 4.63448660714286  0.25634765625 4.49497767857143  C 0.42724609375 4.35546875  0.633463541666667 4.28571428571429  0.875 4.28571428571429  Z M 3.28125 8.75  L 3.3154296875 8.75  C 3.43391927083333 8.74255952380952  3.53304036458333 8.70070684523809  3.61279296875 8.62444196428571  C 3.69254557291667 8.54817708333333  3.72786458333333 8.46168154761905  3.71875 8.36495535714286  L 3.5 6.04352678571429  C 3.49088541666667 5.94680059523809  3.43961588541667 5.86588541666667  3.34619140625 5.80078125  C 3.25276692708333 5.73567708333333  3.14680989583333 5.70684523809524  3.0283203125 5.71428571428571  C 2.90983072916667 5.72172619047619  2.81070963541667 5.76357886904762  2.73095703125 5.83984375  C 2.65120442708333 5.91610863095238  2.61588541666667 6.00260416666667  2.625 6.09933035714286  L 2.84375 8.42075892857143  C 2.85286458333333 8.51376488095238  2.89957682291667 8.59188988095238  2.98388671875 8.65513392857143  C 3.06819661458333 8.71837797619048  3.16731770833333 8.75  3.28125 8.75  Z M 5.9951171875 8.64397321428571  C 6.08170572916667 8.57328869047619  6.125 8.48958333333333  6.125 8.39285714285714  L 6.125 6.07142857142857  C 6.125 5.97470238095238  6.08170572916667 5.89099702380952  5.9951171875 5.8203125  C 5.90852864583333 5.74962797619048  5.80598958333333 5.71428571428571  5.6875 5.71428571428571  C 5.56901041666667 5.71428571428571  5.46647135416667 5.74962797619048  5.3798828125 5.8203125  C 5.29329427083333 5.89099702380952  5.25 5.97470238095238  5.25 6.07142857142857  L 5.25 8.39285714285714  C 5.25 8.48958333333333  5.29329427083333 8.57328869047619  5.3798828125 8.64397321428571  C 5.46647135416667 8.71465773809524  5.56901041666667 8.75  5.6875 8.75  C 5.80598958333333 8.75  5.90852864583333 8.71465773809524  5.9951171875 8.64397321428571  Z M 8.6201171875 8.64397321428571  C 8.70670572916667 8.57328869047619  8.75 8.48958333333333  8.75 8.39285714285714  L 8.75 6.07142857142857  C 8.75 5.97470238095238  8.70670572916667 5.89099702380952  8.6201171875 5.8203125  C 8.53352864583333 5.74962797619048  8.43098958333333 5.71428571428571  8.3125 5.71428571428571  C 8.19401041666667 5.71428571428571  8.09147135416667 5.74962797619048  8.0048828125 5.8203125  C 7.91829427083333 5.89099702380952  7.875 5.97470238095238  7.875 6.07142857142857  L 7.875 8.39285714285714  C 7.875 8.48958333333333  7.91829427083333 8.57328869047619  8.0048828125 8.64397321428571  C 8.09147135416667 8.71465773809524  8.19401041666667 8.75  8.3125 8.75  C 8.43098958333333 8.75  8.53352864583333 8.71465773809524  8.6201171875 8.64397321428571  Z M 11.01611328125 8.65513392857143  C 11.1004231770833 8.59188988095238  11.1471354166667 8.51376488095238  11.15625 8.42075892857143  L 11.375 6.09933035714286  C 11.3841145833333 6.00260416666667  11.3487955729167 5.91610863095238  11.26904296875 5.83984375  C 11.1892903645833 5.76357886904762  11.0901692708333 5.72172619047619  10.9716796875 5.71428571428571  C 10.8531901041667 5.70684523809524  10.7472330729167 5.73567708333333  10.65380859375 5.80078125  C 10.5603841145833 5.86588541666667  10.5091145833333 5.94680059523809  10.5 6.04352678571429  L 10.28125 8.36495535714286  C 10.2721354166667 8.46168154761905  10.3074544270833 8.54817708333333  10.38720703125 8.62444196428571  C 10.4669596354167 8.70070684523809  10.5660807291667 8.74255952380952  10.6845703125 8.75  L 10.71875 8.75  C 10.8326822916667 8.75  10.9318033854167 8.71837797619048  11.01611328125 8.65513392857143  Z M 3.56494140625 1.22767857142857  C 3.40771484375 1.33184523809524  3.30403645833333 1.46577380952381  3.25390625 1.62946428571429  L 2.6181640625 3.92857142857143  L 1.7158203125 3.92857142857143  L 2.40625 1.46763392857143  C 2.49283854166667 1.14025297619048  2.69563802083333 0.873325892857143  3.0146484375 0.666852678571429  C 3.33365885416667 0.460379464285714  3.6982421875 0.357142857142857  4.1083984375 0.357142857142857  L 5.25 0.357142857142857  C 5.25 0.260416666666666  5.29329427083333 0.176711309523808  5.3798828125 0.106026785714286  C 5.46647135416667 0.0353422619047628  5.56901041666667 0  5.6875 0  L 8.3125 0  C 8.43098958333333 0  8.53352864583333 0.0353422619047628  8.6201171875 0.106026785714286  C 8.70670572916667 0.176711309523808  8.75 0.260416666666666  8.75 0.357142857142857  L 9.8916015625 0.357142857142857  C 10.3017578125 0.357142857142857  10.6663411458333 0.460379464285714  10.9853515625 0.666852678571429  C 11.3043619791667 0.873325892857143  11.5071614583333 1.14025297619048  11.59375 1.46763392857143  L 12.2841796875 3.92857142857143  L 11.3818359375 3.92857142857143  L 10.74609375 1.62946428571429  C 10.6959635416667 1.46577380952381  10.59228515625 1.33184523809524  10.43505859375 1.22767857142857  C 10.27783203125 1.1235119047619  10.0966796875 1.07142857142857  9.8916015625 1.07142857142857  L 8.75 1.07142857142857  C 8.75 1.16815476190476  8.70670572916667 1.25186011904762  8.6201171875 1.32254464285714  C 8.53352864583333 1.39322916666667  8.43098958333333 1.42857142857143  8.3125 1.42857142857143  L 5.6875 1.42857142857143  C 5.56901041666667 1.42857142857143  5.46647135416667 1.39322916666667  5.3798828125 1.32254464285714  C 5.29329427083333 1.25186011904762  5.25 1.16815476190476  5.25 1.07142857142857  L 4.1083984375 1.07142857142857  C 3.9033203125 1.07142857142857  3.72216796875 1.1235119047619  3.56494140625 1.22767857142857  Z " fill-rule="nonzero" fill="#000000" stroke="none" transform="matrix(1 0 0 1 295 145 )" />
  </g>
</svg>