<?xml version="1.0" encoding="utf-8"?>
<svg version="1.1" xmlns:xlink="http://www.w3.org/1999/xlink" width="8px" height="11px" xmlns="http://www.w3.org/2000/svg">
  <g transform="matrix(1 0 0 1 -288 -17 )">
    <path d="M 7.98295454545455 8.5234375  C 7.99431818181818 8.55989583333333  8 8.61458333333333  8 8.6875  C 8 8.828125  7.98106060606061 9.01171875  7.94318181818182 9.23828125  C 7.90530303030303 9.46484375  7.8655303030303 9.64322916666667  7.82386363636364 9.7734375  C 7.74431818181818 10.0338541666667  7.51325757575758 10.3098958333333  7.13068181818182 10.6015625  C 6.77462121212121 10.8671875  6.42234848484849 11  6.07386363636364 11  C 5.97159090909091 11  5.87121212121212 10.9908854166667  5.77272727272727 10.97265625  C 5.67424242424242 10.9544270833333  5.56534090909091 10.921875  5.44602272727273 10.875  C 5.32670454545455 10.828125  5.23768939393939 10.7903645833333  5.17897727272727 10.76171875  C 5.12026515151515 10.7330729166667  5.01515151515152 10.6796875  4.86363636363636 10.6015625  C 4.71212121212121 10.5234375  4.61931818181818 10.4765625  4.58522727272727 10.4609375  C 4.21401515151515 10.2786458333333  3.88257575757576 10.0625  3.59090909090909 9.8125  C 3.10984848484848 9.40104166666667  2.60984848484848 8.83854166666667  2.09090909090909 8.125  C 1.5719696969697 7.41145833333333  1.16287878787879 6.72395833333333  0.863636363636364 6.0625  C 0.681818181818182 5.66145833333333  0.524621212121212 5.20572916666667  0.392045454545455 4.6953125  C 0.380681818181818 4.6484375  0.346590909090909 4.52083333333333  0.289772727272727 4.3125  C 0.232954545454545 4.10416666666667  0.194128787878788 3.95963541666667  0.173295454545455 3.87890625  C 0.152462121212121 3.79817708333333  0.125 3.67578125  0.0909090909090909 3.51171875  C 0.0568181818181818 3.34765625  0.0331439393939394 3.19791666666667  0.0198863636363636 3.0625  C 0.00662878787878788 2.92708333333333  0 2.7890625  0 2.6484375  C 0 2.16927083333333  0.0965909090909091 1.68489583333333  0.289772727272727 1.1953125  C 0.501893939393939 0.669270833333332  0.702651515151515 0.3515625  0.892045454545455 0.2421875  C 0.986742424242424 0.184895833333332  1.11647727272727 0.130208333333332  1.28125 0.0781249999999998  C 1.44602272727273 0.0260416666666662  1.57954545454545 0  1.68181818181818 0  C 1.73484848484849 0  1.77462121212121 0.00781250000000022  1.80113636363636 0.0234374999999994  C 1.86931818181818 0.0546875000000003  1.96969696969697 0.252604166666667  2.10227272727273 0.6171875  C 2.14393939393939 0.716145833333332  2.20075757575758 0.856770833333332  2.27272727272727 1.0390625  C 2.34469696969697 1.22135416666667  2.41098484848485 1.38671875  2.47159090909091 1.53515625  C 2.53219696969697 1.68359375  2.59090909090909 1.82291666666667  2.64772727272727 1.953125  C 2.65909090909091 1.97395833333333  2.69223484848485 2.0390625  2.74715909090909 2.1484375  C 2.80208333333333 2.2578125  2.84280303030303 2.35026041666667  2.86931818181818 2.42578125  C 2.89583333333333 2.50130208333333  2.90909090909091 2.57552083333333  2.90909090909091 2.6484375  C 2.90909090909091 2.75260416666667  2.85511363636364 2.8828125  2.74715909090909 3.0390625  C 2.63920454545455 3.1953125  2.5217803030303 3.33854166666667  2.39488636363636 3.46875  C 2.26799242424242 3.59895833333333  2.15056818181818 3.73697916666667  2.04261363636364 3.8828125  C 1.93465909090909 4.02864583333333  1.88068181818182 4.1484375  1.88068181818182 4.2421875  C 1.88068181818182 4.2890625  1.89015151515152 4.34765625  1.90909090909091 4.41796875  C 1.9280303030303 4.48828125  1.94412878787879 4.54166666666667  1.95738636363636 4.578125  C 1.97064393939394 4.61458333333333  1.99715909090909 4.67708333333333  2.03693181818182 4.765625  C 2.07670454545455 4.85416666666667  2.09848484848485 4.90364583333333  2.10227272727273 4.9140625  C 2.39015151515152 5.62760416666667  2.71969696969697 6.23958333333333  3.09090909090909 6.75  C 3.46212121212121 7.26041666666667  3.90719696969697 7.71354166666667  4.42613636363636 8.109375  C 4.43371212121212 8.11458333333333  4.46969696969697 8.14453125  4.53409090909091 8.19921875  C 4.59848484848485 8.25390625  4.64393939393939 8.29036458333333  4.67045454545455 8.30859375  C 4.6969696969697 8.32682291666667  4.73579545454545 8.34895833333333  4.78693181818182 8.375  C 4.83806818181818 8.40104166666667  4.88068181818182 8.4140625  4.91477272727273 8.4140625  C 4.98295454545455 8.4140625  5.07007575757576 8.33984375  5.17613636363636 8.19140625  C 5.28219696969697 8.04296875  5.38257575757576 7.88151041666667  5.47727272727273 7.70703125  C 5.5719696969697 7.53255208333333  5.67613636363636 7.37109375  5.78977272727273 7.22265625  C 5.90340909090909 7.07421875  5.99810606060606 7  6.07386363636364 7  C 6.12689393939394 7  6.18087121212121 7.01822916666667  6.23579545454545 7.0546875  C 6.2907196969697 7.09114583333333  6.35795454545455 7.14713541666667  6.4375 7.22265625  C 6.51704545454545 7.29817708333333  6.56439393939394 7.34375  6.57954545454545 7.359375  C 6.67424242424242 7.4375  6.77556818181818 7.51822916666667  6.88352272727273 7.6015625  C 6.99147727272727 7.68489583333333  7.11174242424242 7.77604166666667  7.24431818181818 7.875  C 7.37689393939394 7.97395833333333  7.47916666666667 8.05208333333333  7.55113636363636 8.109375  C 7.81628787878788 8.29166666666667  7.96022727272727 8.4296875  7.98295454545455 8.5234375  Z " fill-rule="nonzero" fill="#000000" stroke="none" transform="matrix(1 0 0 1 288 17 )" />
  </g>
</svg>