<?xml version="1.0" encoding="utf-8"?>
<svg version="1.1" xmlns:xlink="http://www.w3.org/1999/xlink" width="13px" height="11px" xmlns="http://www.w3.org/2000/svg">
  <g transform="matrix(1 0 0 1 -604 -149 )">
    <path d="M 0.8125 4.71428571428571  L 12.1875 4.71428571428571  C 12.4117838541667 4.71428571428571  12.603271484375 4.791015625  12.761962890625 4.94447544642857  C 12.920654296875 5.09793526785714  13 5.28311011904762  13 5.5  C 13 5.71688988095238  12.920654296875 5.90206473214286  12.761962890625 6.05552455357143  C 12.603271484375 6.208984375  12.4117838541667 6.28571428571429  12.1875 6.28571428571429  L 12.09228515625 6.28571428571429  L 11.3623046875 10.3493303571429  C 11.3284505208333 10.5375744047619  11.2353515625 10.6930803571429  11.0830078125 10.8158482142857  C 10.9306640625 10.9386160714286  10.7571614583333 11  10.5625 11  L 2.4375 11  C 2.24283854166667 11  2.0693359375 10.9386160714286  1.9169921875 10.8158482142857  C 1.7646484375 10.6930803571429  1.67154947916667 10.5375744047619  1.6376953125 10.3493303571429  L 0.90771484375 6.28571428571429  L 0.8125 6.28571428571429  C 0.588216145833333 6.28571428571429  0.396728515625 6.208984375  0.238037109375 6.05552455357143  C 0.079345703125 5.90206473214286  0 5.71688988095238  0 5.5  C 0 5.28311011904762  0.079345703125 5.09793526785714  0.238037109375 4.94447544642857  C 0.396728515625 4.791015625  0.588216145833333 4.71428571428571  0.8125 4.71428571428571  Z M 3.046875 9.625  L 3.07861328125 9.625  C 3.18863932291667 9.61681547619048  3.28068033854167 9.57077752976191  3.354736328125 9.48688616071428  C 3.42879231770833 9.40299479166667  3.46158854166667 9.30784970238095  3.453125 9.20145089285714  L 3.25 6.64787946428571  C 3.24153645833333 6.5414806547619  3.19392903645833 6.45247395833333  3.107177734375 6.380859375  C 3.02042643229167 6.30924479166667  2.92203776041667 6.27752976190476  2.81201171875 6.28571428571429  C 2.70198567708333 6.29389880952381  2.60994466145833 6.33993675595238  2.535888671875 6.423828125  C 2.46183268229167 6.50771949404762  2.42903645833333 6.60286458333333  2.4375 6.70926339285714  L 2.640625 9.26283482142857  C 2.64908854166667 9.36514136904762  2.69246419270833 9.45107886904762  2.770751953125 9.52064732142857  C 2.84903971354167 9.59021577380952  2.94108072916667 9.625  3.046875 9.625  Z M 5.56689453125 9.50837053571428  C 5.64729817708333 9.43061755952381  5.6875 9.33854166666667  5.6875 9.23214285714286  L 5.6875 6.67857142857143  C 5.6875 6.57217261904762  5.64729817708333 6.48009672619048  5.56689453125 6.40234375  C 5.48649088541667 6.32459077380952  5.39127604166667 6.28571428571429  5.28125 6.28571428571429  C 5.17122395833333 6.28571428571429  5.07600911458333 6.32459077380952  4.99560546875 6.40234375  C 4.91520182291667 6.48009672619048  4.875 6.57217261904762  4.875 6.67857142857143  L 4.875 9.23214285714286  C 4.875 9.33854166666667  4.91520182291667 9.43061755952381  4.99560546875 9.50837053571428  C 5.07600911458333 9.58612351190476  5.17122395833333 9.625  5.28125 9.625  C 5.39127604166667 9.625  5.48649088541667 9.58612351190476  5.56689453125 9.50837053571428  Z M 8.00439453125 9.50837053571428  C 8.08479817708333 9.43061755952381  8.125 9.33854166666667  8.125 9.23214285714286  L 8.125 6.67857142857143  C 8.125 6.57217261904762  8.08479817708333 6.48009672619048  8.00439453125 6.40234375  C 7.92399088541667 6.32459077380952  7.82877604166667 6.28571428571429  7.71875 6.28571428571429  C 7.60872395833333 6.28571428571429  7.51350911458333 6.32459077380952  7.43310546875 6.40234375  C 7.35270182291667 6.48009672619048  7.3125 6.57217261904762  7.3125 6.67857142857143  L 7.3125 9.23214285714286  C 7.3125 9.33854166666667  7.35270182291667 9.43061755952381  7.43310546875 9.50837053571428  C 7.51350911458333 9.58612351190476  7.60872395833333 9.625  7.71875 9.625  C 7.82877604166667 9.625  7.92399088541667 9.58612351190476  8.00439453125 9.50837053571428  Z M 10.229248046875 9.52064732142857  C 10.3075358072917 9.45107886904762  10.3509114583333 9.36514136904762  10.359375 9.26283482142857  L 10.5625 6.70926339285714  C 10.5709635416667 6.60286458333333  10.5381673177083 6.50771949404762  10.464111328125 6.423828125  C 10.3900553385417 6.33993675595238  10.2980143229167 6.29389880952381  10.18798828125 6.28571428571429  C 10.0779622395833 6.27752976190476  9.97957356770833 6.30924479166667  9.892822265625 6.380859375  C 9.80607096354167 6.45247395833333  9.75846354166667 6.5414806547619  9.75 6.64787946428571  L 9.546875 9.20145089285714  C 9.53841145833333 9.30784970238095  9.57120768229167 9.40299479166667  9.645263671875 9.48688616071428  C 9.71931966145833 9.57077752976191  9.81136067708333 9.61681547619048  9.92138671875 9.625  L 9.953125 9.625  C 10.0589192708333 9.625  10.1509602864583 9.59021577380952  10.229248046875 9.52064732142857  Z M 3.310302734375 1.35044642857143  C 3.164306640625 1.46502976190476  3.06803385416667 1.61235119047619  3.021484375 1.79241071428571  L 2.43115234375 4.32142857142857  L 1.59326171875 4.32142857142857  L 2.234375 1.61439732142857  C 2.31477864583333 1.25427827380952  2.50309244791667 0.960658482142857  2.79931640625 0.733537946428572  C 3.09554036458333 0.506417410714285  3.43408203125 0.392857142857143  3.81494140625 0.392857142857143  L 4.875 0.392857142857143  C 4.875 0.286458333333333  4.91520182291667 0.194382440476189  4.99560546875 0.116629464285715  C 5.07600911458333 0.038876488095239  5.17122395833333 0  5.28125 0  L 7.71875 0  C 7.82877604166667 0  7.92399088541667 0.038876488095239  8.00439453125 0.116629464285715  C 8.08479817708333 0.194382440476189  8.125 0.286458333333333  8.125 0.392857142857143  L 9.18505859375 0.392857142857143  C 9.56591796875 0.392857142857143  9.90445963541667 0.506417410714285  10.20068359375 0.733537946428572  C 10.4969075520833 0.960658482142857  10.6852213541667 1.25427827380952  10.765625 1.61439732142857  L 11.40673828125 4.32142857142857  L 10.56884765625 4.32142857142857  L 9.978515625 1.79241071428571  C 9.93196614583333 1.61235119047619  9.835693359375 1.46502976190476  9.689697265625 1.35044642857143  C 9.543701171875 1.2358630952381  9.37548828125 1.17857142857143  9.18505859375 1.17857142857143  L 8.125 1.17857142857143  C 8.125 1.28497023809524  8.08479817708333 1.37704613095238  8.00439453125 1.45479910714286  C 7.92399088541667 1.53255208333333  7.82877604166667 1.57142857142857  7.71875 1.57142857142857  L 5.28125 1.57142857142857  C 5.17122395833333 1.57142857142857  5.07600911458333 1.53255208333333  4.99560546875 1.45479910714286  C 4.91520182291667 1.37704613095238  4.875 1.28497023809524  4.875 1.17857142857143  L 3.81494140625 1.17857142857143  C 3.62451171875 1.17857142857143  3.456298828125 1.2358630952381  3.310302734375 1.35044642857143  Z " fill-rule="nonzero" fill="#000000" stroke="none" transform="matrix(1 0 0 1 604 149 )" />
  </g>
</svg>