<?xml version="1.0" encoding="utf-8"?>
<svg version="1.1" xmlns:xlink="http://www.w3.org/1999/xlink" width="13px" height="12px" xmlns="http://www.w3.org/2000/svg">
  <g transform="matrix(1 0 0 1 -894 -152 )">
    <path d="M 0.8125 5.14285714285714  L 12.1875 5.14285714285714  C 12.4117838541667 5.14285714285714  12.603271484375 5.2265625  12.761962890625 5.39397321428572  C 12.920654296875 5.56138392857143  13 5.76339285714286  13 6  C 13 6.23660714285714  12.920654296875 6.43861607142857  12.761962890625 6.60602678571429  C 12.603271484375 6.7734375  12.4117838541667 6.85714285714286  12.1875 6.85714285714286  L 12.09228515625 6.85714285714286  L 11.3623046875 11.2901785714286  C 11.3284505208333 11.4955357142857  11.2353515625 11.6651785714286  11.0830078125 11.7991071428571  C 10.9306640625 11.9330357142857  10.7571614583333 12  10.5625 12  L 2.4375 12  C 2.24283854166667 12  2.0693359375 11.9330357142857  1.9169921875 11.7991071428571  C 1.7646484375 11.6651785714286  1.67154947916667 11.4955357142857  1.6376953125 11.2901785714286  L 0.90771484375 6.85714285714286  L 0.8125 6.85714285714286  C 0.588216145833333 6.85714285714286  0.396728515625 6.7734375  0.238037109375 6.60602678571429  C 0.079345703125 6.43861607142857  0 6.23660714285714  0 6  C 0 5.76339285714286  0.079345703125 5.56138392857143  0.238037109375 5.39397321428572  C 0.396728515625 5.2265625  0.588216145833333 5.14285714285714  0.8125 5.14285714285714  Z M 3.046875 10.5  L 3.07861328125 10.5  C 3.18863932291667 10.4910714285714  3.28068033854167 10.4408482142857  3.354736328125 10.3493303571429  C 3.42879231770833 10.2578125  3.46158854166667 10.1540178571429  3.453125 10.0379464285714  L 3.25 7.25223214285714  C 3.24153645833333 7.13616071428571  3.19392903645833 7.0390625  3.107177734375 6.9609375  C 3.02042643229167 6.8828125  2.92203776041667 6.84821428571428  2.81201171875 6.85714285714286  C 2.70198567708333 6.86607142857143  2.60994466145833 6.91629464285714  2.535888671875 7.0078125  C 2.46183268229167 7.09933035714286  2.42903645833333 7.203125  2.4375 7.31919642857143  L 2.640625 10.1049107142857  C 2.64908854166667 10.2165178571429  2.69246419270833 10.3102678571429  2.770751953125 10.3861607142857  C 2.84903971354167 10.4620535714286  2.94108072916667 10.5  3.046875 10.5  Z M 5.56689453125 10.3727678571429  C 5.64729817708333 10.2879464285714  5.6875 10.1875  5.6875 10.0714285714286  L 5.6875 7.28571428571429  C 5.6875 7.16964285714286  5.64729817708333 7.06919642857143  5.56689453125 6.984375  C 5.48649088541667 6.89955357142857  5.39127604166667 6.85714285714286  5.28125 6.85714285714286  C 5.17122395833333 6.85714285714286  5.07600911458333 6.89955357142857  4.99560546875 6.984375  C 4.91520182291667 7.06919642857143  4.875 7.16964285714286  4.875 7.28571428571429  L 4.875 10.0714285714286  C 4.875 10.1875  4.91520182291667 10.2879464285714  4.99560546875 10.3727678571429  C 5.07600911458333 10.4575892857143  5.17122395833333 10.5  5.28125 10.5  C 5.39127604166667 10.5  5.48649088541667 10.4575892857143  5.56689453125 10.3727678571429  Z M 8.00439453125 10.3727678571429  C 8.08479817708333 10.2879464285714  8.125 10.1875  8.125 10.0714285714286  L 8.125 7.28571428571429  C 8.125 7.16964285714286  8.08479817708333 7.06919642857143  8.00439453125 6.984375  C 7.92399088541667 6.89955357142857  7.82877604166667 6.85714285714286  7.71875 6.85714285714286  C 7.60872395833333 6.85714285714286  7.51350911458333 6.89955357142857  7.43310546875 6.984375  C 7.35270182291667 7.06919642857143  7.3125 7.16964285714286  7.3125 7.28571428571429  L 7.3125 10.0714285714286  C 7.3125 10.1875  7.35270182291667 10.2879464285714  7.43310546875 10.3727678571429  C 7.51350911458333 10.4575892857143  7.60872395833333 10.5  7.71875 10.5  C 7.82877604166667 10.5  7.92399088541667 10.4575892857143  8.00439453125 10.3727678571429  Z M 10.229248046875 10.3861607142857  C 10.3075358072917 10.3102678571429  10.3509114583333 10.2165178571429  10.359375 10.1049107142857  L 10.5625 7.31919642857143  C 10.5709635416667 7.203125  10.5381673177083 7.09933035714286  10.464111328125 7.0078125  C 10.3900553385417 6.91629464285714  10.2980143229167 6.86607142857143  10.18798828125 6.85714285714286  C 10.0779622395833 6.84821428571428  9.97957356770833 6.8828125  9.892822265625 6.9609375  C 9.80607096354167 7.0390625  9.75846354166667 7.13616071428571  9.75 7.25223214285714  L 9.546875 10.0379464285714  C 9.53841145833333 10.1540178571429  9.57120768229167 10.2578125  9.645263671875 10.3493303571429  C 9.71931966145833 10.4408482142857  9.81136067708333 10.4910714285714  9.92138671875 10.5  L 9.953125 10.5  C 10.0589192708333 10.5  10.1509602864583 10.4620535714286  10.229248046875 10.3861607142857  Z M 3.310302734375 1.47321428571429  C 3.164306640625 1.59821428571428  3.06803385416667 1.75892857142857  3.021484375 1.95535714285714  L 2.43115234375 4.71428571428572  L 1.59326171875 4.71428571428572  L 2.234375 1.76116071428571  C 2.31477864583333 1.36830357142857  2.50309244791667 1.04799107142857  2.79931640625 0.800223214285715  C 3.09554036458333 0.552455357142857  3.43408203125 0.428571428571428  3.81494140625 0.428571428571428  L 4.875 0.428571428571428  C 4.875 0.3125  4.91520182291667 0.21205357142857  4.99560546875 0.127232142857143  C 5.07600911458333 0.0424107142857153  5.17122395833333 0  5.28125 0  L 7.71875 0  C 7.82877604166667 0  7.92399088541667 0.0424107142857153  8.00439453125 0.127232142857143  C 8.08479817708333 0.21205357142857  8.125 0.3125  8.125 0.428571428571428  L 9.18505859375 0.428571428571428  C 9.56591796875 0.428571428571428  9.90445963541667 0.552455357142857  10.20068359375 0.800223214285715  C 10.4969075520833 1.04799107142857  10.6852213541667 1.36830357142857  10.765625 1.76116071428571  L 11.40673828125 4.71428571428572  L 10.56884765625 4.71428571428572  L 9.978515625 1.95535714285714  C 9.93196614583333 1.75892857142857  9.835693359375 1.59821428571428  9.689697265625 1.47321428571429  C 9.543701171875 1.34821428571429  9.37548828125 1.28571428571429  9.18505859375 1.28571428571429  L 8.125 1.28571428571429  C 8.125 1.40178571428571  8.08479817708333 1.50223214285714  8.00439453125 1.58705357142857  C 7.92399088541667 1.671875  7.82877604166667 1.71428571428571  7.71875 1.71428571428571  L 5.28125 1.71428571428571  C 5.17122395833333 1.71428571428571  5.07600911458333 1.671875  4.99560546875 1.58705357142857  C 4.91520182291667 1.50223214285714  4.875 1.40178571428571  4.875 1.28571428571429  L 3.81494140625 1.28571428571429  C 3.62451171875 1.28571428571429  3.456298828125 1.34821428571429  3.310302734375 1.47321428571429  Z " fill-rule="nonzero" fill="#000000" stroke="none" transform="matrix(1 0 0 1 894 152 )" />
  </g>
</svg>