<?xml version="1.0" encoding="utf-8"?>
<svg version="1.1" xmlns:xlink="http://www.w3.org/1999/xlink" width="19px" height="20px" xmlns="http://www.w3.org/2000/svg">
  <g>
    <path d="M 13.9861111111111 0  C 16.1412037037037 0  17.8125 0.0480769230769229  19 0.144230769230769  L 19 3.31730769230769  L 15.5474537037037 3.31730769230769  C 14.2866512345679 3.31730769230769  13.4363425925926 3.46153846153846  12.9965277777778 3.75  C 12.556712962963 4.03846153846154  12.3368055555556 4.47115384615385  12.3368055555556 5.04807692307692  L 12.3368055555556 7.31971153846154  L 18.7800925925926 7.31971153846154  L 17.9224537037037 10.8774038461538  L 12.3368055555556 10.8774038461538  L 12.3368055555556 20  L 5.60763888888889 20  L 5.60763888888889 10.8774038461538  L 0 10.8774038461538  L 0 7.31971153846154  L 5.60763888888889 7.31971153846154  L 5.60763888888889 4.69951923076923  C 5.60763888888889 3.20913461538461  6.36998456790124 2.05328525641026  7.89467592592593 1.23197115384615  C 9.41936728395062 0.410657051282053  11.4498456790123 0  13.9861111111111 0  Z " fill-rule="nonzero" fill="#ffffff" stroke="none" />
  </g>
</svg>