<?xml version="1.0" encoding="utf-8"?>
<svg version="1.1" xmlns:xlink="http://www.w3.org/1999/xlink" width="19px" height="20px" xmlns="http://www.w3.org/2000/svg">
  <g>
    <path d="M 11.7389322916667 12.3567708333333  C 12.357421875 11.7057291666667  12.6666666666667 10.9201388888889  12.6666666666667 10  C 12.6666666666667 9.07986111111111  12.357421875 8.29427083333333  11.7389322916667 7.64322916666667  C 11.1204427083333 6.9921875  10.3741319444444 6.66666666666667  9.5 6.66666666666667  C 8.62586805555556 6.66666666666667  7.87955729166667 6.9921875  7.26106770833333 7.64322916666667  C 6.642578125 8.29427083333333  6.33333333333333 9.07986111111111  6.33333333333333 10  C 6.33333333333333 10.9201388888889  6.642578125 11.7057291666667  7.26106770833333 12.3567708333333  C 7.87955729166667 13.0078125  8.62586805555556 13.3333333333333  9.5 13.3333333333333  C 10.3741319444444 13.3333333333333  11.1204427083333 13.0078125  11.7389322916667 12.3567708333333  Z M 12.951171875 6.3671875  C 13.8995225694444 7.36545138888889  14.3736979166667 8.57638888888889  14.3736979166667 10  C 14.3736979166667 11.4236111111111  13.8995225694444 12.6345486111111  12.951171875 13.6328125  C 12.0028211805556 14.6310763888889  10.8524305555556 15.1302083333333  9.5 15.1302083333333  C 8.14756944444444 15.1302083333333  6.99717881944444 14.6310763888889  6.048828125 13.6328125  C 5.10047743055556 12.6345486111111  4.62630208333333 11.4236111111111  4.62630208333333 10  C 4.62630208333333 8.57638888888889  5.10047743055556 7.36545138888889  6.048828125 6.3671875  C 6.99717881944444 5.36892361111111  8.14756944444444 4.86979166666667  9.5 4.86979166666667  C 10.8524305555556 4.86979166666667  12.0028211805556 5.36892361111111  12.951171875 6.3671875  Z M 15.3756510416667 3.81510416666667  C 15.5983072916667 4.04947916666667  15.7096354166667 4.33159722222222  15.7096354166667 4.66145833333333  C 15.7096354166667 4.99131944444444  15.5983072916667 5.2734375  15.3756510416667 5.5078125  C 15.1529947916667 5.7421875  14.8849826388889 5.859375  14.5716145833333 5.859375  C 14.2582465277778 5.859375  13.990234375 5.7421875  13.767578125 5.5078125  C 13.544921875 5.2734375  13.43359375 4.99131944444444  13.43359375 4.66145833333333  C 13.43359375 4.33159722222222  13.544921875 4.04947916666667  13.767578125 3.81510416666667  C 13.990234375 3.58072916666667  14.2582465277778 3.46354166666667  14.5716145833333 3.46354166666667  C 14.8849826388889 3.46354166666667  15.1529947916667 3.58072916666667  15.3756510416667 3.81510416666667  Z M 10.4462890625 1.79036458333333  C 9.87315538194445 1.79470486111111  9.55772569444445 1.796875  9.5 1.796875  C 9.44227430555556 1.796875  9.12684461805556 1.79470486111111  8.5537109375 1.79036458333333  C 7.98057725694444 1.78602430555555  7.54557291666667 1.78602430555555  7.24869791666667 1.79036458333333  C 6.95182291666667 1.79470486111111  6.55392795138889 1.80772569444444  6.05501302083333 1.82942708333333  C 5.55609809027778 1.85112847222222  5.13140190972222 1.89453125  4.78092447916667 1.95963541666667  C 4.43044704861111 2.02473958333333  4.13563368055556 2.10503472222222  3.896484375 2.20052083333333  C 3.48415798611111 2.37413194444444  3.12131076388889 2.62586805555555  2.80794270833333 2.95572916666667  C 2.49457465277778 3.28559027777778  2.25542534722222 3.66753472222222  2.09049479166667 4.1015625  C 1.99978298611111 4.35329861111111  1.92350260416667 4.66362847222222  1.86165364583333 5.03255208333333  C 1.7998046875 5.40147569444444  1.75857204861111 5.84852430555555  1.73795572916667 6.37369791666667  C 1.71733940972222 6.89887152777778  1.70496961805556 7.31770833333333  1.70084635416667 7.63020833333333  C 1.69672309027778 7.94270833333333  1.69672309027778 8.40060763888889  1.70084635416667 9.00390625  C 1.70496961805556 9.60720486111111  1.70703125 9.93923611111111  1.70703125 10  C 1.70703125 10.0607638888889  1.70496961805556 10.3927951388889  1.70084635416667 10.99609375  C 1.69672309027778 11.5993923611111  1.69672309027778 12.0572916666667  1.70084635416667 12.3697916666667  C 1.70496961805556 12.6822916666667  1.71733940972222 13.1011284722222  1.73795572916667 13.6263020833333  C 1.75857204861111 14.1514756944444  1.7998046875 14.5985243055556  1.86165364583333 14.9674479166667  C 1.92350260416667 15.3363715277778  1.99978298611111 15.6467013888889  2.09049479166667 15.8984375  C 2.25542534722222 16.3324652777778  2.49457465277778 16.7144097222222  2.80794270833333 17.0442708333333  C 3.12131076388889 17.3741319444444  3.48415798611111 17.6258680555556  3.896484375 17.7994791666667  C 4.13563368055556 17.8949652777778  4.43044704861111 17.9752604166667  4.78092447916667 18.0403645833333  C 5.13140190972222 18.10546875  5.55609809027778 18.1488715277778  6.05501302083333 18.1705729166667  C 6.55392795138889 18.1922743055556  6.95182291666667 18.2052951388889  7.24869791666667 18.2096354166667  C 7.54557291666667 18.2139756944444  7.98057725694444 18.2139756944444  8.5537109375 18.2096354166667  C 9.12684461805556 18.2052951388889  9.44227430555556 18.203125  9.5 18.203125  C 9.55772569444445 18.203125  9.87315538194445 18.2052951388889  10.4462890625 18.2096354166667  C 11.0194227430556 18.2139756944444  11.4544270833333 18.2139756944444  11.7513020833333 18.2096354166667  C 12.0481770833333 18.2052951388889  12.4460720486111 18.1922743055556  12.9449869791667 18.1705729166667  C 13.4439019097222 18.1488715277778  13.8685980902778 18.10546875  14.2190755208333 18.0403645833333  C 14.5695529513889 17.9752604166667  14.8643663194444 17.8949652777778  15.103515625 17.7994791666667  C 15.5158420138889 17.6258680555556  15.8786892361111 17.3741319444444  16.1920572916667 17.0442708333333  C 16.5054253472222 16.7144097222222  16.7445746527778 16.3324652777778  16.9095052083333 15.8984375  C 17.0002170138889 15.6467013888889  17.0764973958333 15.3363715277778  17.1383463541667 14.9674479166667  C 17.2001953125 14.5985243055556  17.2414279513889 14.1514756944444  17.2620442708333 13.6263020833333  C 17.2826605902778 13.1011284722222  17.2950303819444 12.6822916666667  17.2991536458333 12.3697916666667  C 17.3032769097222 12.0572916666667  17.3032769097222 11.5993923611111  17.2991536458333 10.99609375  C 17.2950303819444 10.3927951388889  17.29296875 10.0607638888889  17.29296875 10  C 17.29296875 9.93923611111111  17.2950303819444 9.60720486111111  17.2991536458333 9.00390625  C 17.3032769097222 8.40060763888889  17.3032769097222 7.94270833333333  17.2991536458333 7.63020833333333  C 17.2950303819444 7.31770833333333  17.2826605902778 6.89887152777778  17.2620442708333 6.37369791666667  C 17.2414279513889 5.84852430555555  17.2001953125 5.40147569444444  17.1383463541667 5.03255208333333  C 17.0764973958333 4.66362847222222  17.0002170138889 4.35329861111111  16.9095052083333 4.1015625  C 16.7445746527778 3.66753472222222  16.5054253472222 3.28559027777778  16.1920572916667 2.95572916666667  C 15.8786892361111 2.62586805555555  15.5158420138889 2.37413194444444  15.103515625 2.20052083333333  C 14.8643663194444 2.10503472222222  14.5695529513889 2.02473958333333  14.2190755208333 1.95963541666667  C 13.8685980902778 1.89453125  13.4439019097222 1.85112847222222  12.9449869791667 1.82942708333333  C 12.4460720486111 1.80772569444444  12.0481770833333 1.79470486111111  11.7513020833333 1.79036458333333  C 11.4544270833333 1.78602430555555  11.0194227430556 1.78602430555555  10.4462890625 1.79036458333333  Z M 18.9381510416667 5.87239583333333  C 18.9793836805556 6.63628472222222  19 8.01215277777778  19 10  C 19 11.9878472222222  18.9793836805556 13.3637152777778  18.9381510416667 14.1276041666667  C 18.8556857638889 15.9331597222222  18.3444010416667 17.3307291666667  17.404296875 18.3203125  C 16.4641927083333 19.3098958333333  15.1365017361111 19.8480902777778  13.4212239583333 19.9348958333333  C 12.6955295138889 19.9782986111111  11.3884548611111 20  9.5 20  C 7.61154513888889 20  6.30447048611111 19.9782986111111  5.57877604166667 19.9348958333333  C 3.86349826388889 19.8480902777778  2.53580729166667 19.3098958333333  1.595703125 18.3203125  C 0.655598958333333 17.3307291666667  0.144314236111111 15.9331597222222  0.0618489583333333 14.1276041666667  C 0.0206163194444444 13.3637152777778  0 11.9878472222222  0 10  C 0 8.01215277777778  0.0206163194444444 6.63628472222222  0.0618489583333333 5.87239583333333  C 0.144314236111111 4.06684027777778  0.655598958333333 2.66927083333333  1.595703125 1.6796875  C 2.53580729166667 0.690104166666667  3.86349826388889 0.151909722222221  5.57877604166667 0.0651041666666674  C 6.30447048611111 0.0217013888888862  7.61154513888889 0  9.5 0  C 11.3884548611111 0  12.6955295138889 0.0217013888888862  13.4212239583333 0.0651041666666674  C 15.1365017361111 0.151909722222221  16.4641927083333 0.690104166666667  17.404296875 1.6796875  C 18.3444010416667 2.66927083333333  18.8556857638889 4.06684027777778  18.9381510416667 5.87239583333333  Z " fill-rule="nonzero" fill="#ffffff" stroke="none" />
  </g>
</svg>