<?xml version="1.0" encoding="utf-8"?>
<svg version="1.1" xmlns:xlink="http://www.w3.org/1999/xlink" width="19px" height="20px" xmlns="http://www.w3.org/2000/svg">
  <g>
    <path d="M 16.757614213198 3.15625  C 17.505076142132 3.05208333333333  18.252538071066 2.79166666666666  19 2.375  C 18.4615059221658 3.39583333333333  17.8104906937394 4.265625  17.0469543147208 4.984375  C 17.0549915397631 5.13020833333333  17.0590101522843 5.34895833333333  17.0590101522843 5.640625  C 17.0590101522843 6.99479166666666  16.9063028764805 8.34635416666666  16.6008883248731 9.6953125  C 16.2954737732657 11.0442708333333  15.8313240270728 12.3385416666667  15.2084390862944 13.578125  C 14.5855541455161 14.8177083333333  13.8441201353638 15.9140625  12.9841370558376 16.8671875  C 12.1241539763113 17.8203125  11.0873519458545 18.5807291666667  9.87373096446701 19.1484375  C 8.66010998307953 19.7161458333333  7.36209813874789 20  5.97969543147208 20  C 3.80160744500846 20  1.80837563451777 19.2447916666667  0 17.734375  C 0.281302876480542 17.7760416666667  0.594754653130288 17.796875  0.940355329949239 17.796875  C 2.74873096446701 17.796875  4.36019458544839 17.078125  5.7747461928934 15.640625  C 4.93083756345178 15.6197916666667  4.17533840947547 15.2838541666667  3.50824873096447 14.6328125  C 2.84115905245347 13.9817708333333  2.3830372250423 13.1510416666667  2.13388324873096 12.140625  C 2.3991116751269 12.1927083333333  2.64424703891709 12.21875  2.86928934010152 12.21875  C 3.21489001692047 12.21875  3.55647208121827 12.1614583333333  3.89403553299492 12.046875  C 2.99386632825719 11.8072916666667  2.24841370558376 11.2265625  1.65767766497462 10.3046875  C 1.06694162436548 9.3828125  0.771573604060914 8.3125  0.771573604060914 7.09375  L 0.771573604060914 7.03125  C 1.31810490693739 7.42708333333333  1.90482233502538 7.640625  2.53172588832487 7.671875  C 2.001269035533 7.21354166666667  1.57931472081218 6.61458333333333  1.26586294416244 5.875  C 0.95241116751269 5.13541666666666  0.795685279187817 4.33333333333333  0.795685279187817 3.46875  C 0.795685279187817 2.55208333333333  0.972504230118443 1.703125  1.3261421319797 0.921875000000001  C 2.29864636209814 2.47395833333333  3.48212774957699 3.71614583333333  4.87658629441624 4.6484375  C 6.2710448392555 5.58072916666667  7.76395939086294 6.09895833333333  9.35532994923858 6.203125  C 9.29103214890017 5.80729166666667  9.25888324873097 5.421875  9.25888324873097 5.046875  C 9.25888324873097 3.65104166666666  9.63864213197969 2.4609375  10.3981598984772 1.4765625  C 11.1576776649746 0.492187500000001  12.0759306260575 0  13.1529187817259 0  C 14.2781302876481 0  15.2265228426396 0.531250000000001  15.9980964467005 1.59375  C 16.8741539763113 1.375  17.6979695431472 0.96875  18.4695431472081 0.375000000000001  C 18.172165820643 1.57291666666666  17.6015228426396 2.5  16.757614213198 3.15625  Z " fill-rule="nonzero" fill="#ffffff" stroke="none" />
  </g>
</svg>