<?xml version="1.0" encoding="utf-8"?>
<svg version="1.1" xmlns:xlink="http://www.w3.org/1999/xlink" width="144px" height="120px" xmlns="http://www.w3.org/2000/svg">
  <g transform="matrix(1 0 0 1 -446 -3680 )">
    <path d="M 75.5357142857143 118.59375  C 74.5714285714286 119.53125  73.3928571428571 120  72 120  C 70.6071428571429 120  69.4285714285714 119.53125  68.4642857142857 118.59375  L 18.3214285714286 71.5625  C 17.7857142857143 71.1458333333333  17.0491071428571 70.46875  16.1116071428571 69.53125  C 15.1741071428571 68.59375  13.6875 66.8880208333333  11.6517857142857 64.4140625  C 9.61607142857143 61.9401041666667  7.79464285714286 59.4010416666667  6.1875 56.796875  C 4.58035714285714 54.1927083333333  3.14732142857143 51.0416666666667  1.88839285714286 47.34375  C 0.629464285714286 43.6458333333333  0 40.0520833333333  0 36.5625  C 0 25.1041666666667  3.40178571428571 16.1458333333333  10.2053571428571 9.6875  C 17.0089285714286 3.22916666666667  26.4107142857143 0  38.4107142857143 0  C 41.7321428571429 0  45.1205357142857 0.559895833333326  48.5758928571429 1.6796875  C 52.03125 2.79947916666666  55.2455357142857 4.30989583333333  58.21875 6.2109375  C 61.1919642857143 8.11197916666666  63.75 9.89583333333332  65.8928571428571 11.5625  C 68.0357142857143 13.2291666666667  70.0714285714286 15  72 16.875  C 73.9285714285714 15  75.9642857142857 13.2291666666667  78.1071428571429 11.5625  C 80.25 9.89583333333332  82.8080357142857 8.11197916666666  85.78125 6.2109375  C 88.7544642857143 4.30989583333333  91.96875 2.79947916666666  95.4241071428571 1.6796875  C 98.8794642857143 0.559895833333326  102.267857142857 0  105.589285714286 0  C 117.589285714286 0  126.991071428571 3.22916666666667  133.794642857143 9.6875  C 140.598214285714 16.1458333333333  144 25.1041666666667  144 36.5625  C 144 48.0729166666667  137.866071428571 59.7916666666667  125.598214285714 71.71875  L 75.5357142857143 118.59375  Z " fill-rule="nonzero" fill="#f5bfbf" stroke="none" transform="matrix(1 0 0 1 446 3680 )" />
  </g>
</svg>