<?xml version="1.0" encoding="utf-8"?>
<svg version="1.1" xmlns:xlink="http://www.w3.org/1999/xlink" width="11px" height="12px" xmlns="http://www.w3.org/2000/svg">
  <g transform="matrix(1 0 0 1 -144 -1068 )">
    <path d="M 0.6875 5.14285714285714  L 10.3125 5.14285714285714  C 10.5022786458333 5.14285714285714  10.664306640625 5.2265625  10.798583984375 5.39397321428572  C 10.932861328125 5.56138392857143  11 5.76339285714286  11 6  C 11 6.23660714285714  10.932861328125 6.43861607142857  10.798583984375 6.60602678571429  C 10.664306640625 6.7734375  10.5022786458333 6.85714285714286  10.3125 6.85714285714286  L 10.23193359375 6.85714285714286  L 9.6142578125 11.2901785714286  C 9.58561197916667 11.4955357142857  9.5068359375 11.6651785714286  9.3779296875 11.7991071428571  C 9.2490234375 11.9330357142857  9.10221354166667 12  8.9375 12  L 2.0625 12  C 1.89778645833333 12  1.7509765625 11.9330357142857  1.6220703125 11.7991071428571  C 1.4931640625 11.6651785714286  1.41438802083333 11.4955357142857  1.3857421875 11.2901785714286  L 0.76806640625 6.85714285714286  L 0.6875 6.85714285714286  C 0.497721354166667 6.85714285714286  0.335693359375 6.7734375  0.201416015625 6.60602678571429  C 0.067138671875 6.43861607142857  0 6.23660714285714  0 6  C 0 5.76339285714286  0.067138671875 5.56138392857143  0.201416015625 5.39397321428572  C 0.335693359375 5.2265625  0.497721354166667 5.14285714285714  0.6875 5.14285714285714  Z M 2.578125 10.5  L 2.60498046875 10.5  C 2.69807942708333 10.4910714285714  2.77596028645833 10.4408482142857  2.838623046875 10.3493303571429  C 2.90128580729167 10.2578125  2.92903645833333 10.1540178571429  2.921875 10.0379464285714  L 2.75 7.25223214285714  C 2.74283854166667 7.13616071428571  2.70255533854167 7.0390625  2.629150390625 6.9609375  C 2.55574544270833 6.8828125  2.47249348958333 6.84821428571428  2.37939453125 6.85714285714286  C 2.28629557291667 6.86607142857143  2.20841471354167 6.91629464285714  2.145751953125 7.0078125  C 2.08308919270833 7.09933035714286  2.05533854166667 7.203125  2.0625 7.31919642857143  L 2.234375 10.1049107142857  C 2.24153645833333 10.2165178571429  2.27823893229167 10.3102678571429  2.344482421875 10.3861607142857  C 2.41072591145833 10.4620535714286  2.48860677083333 10.5  2.578125 10.5  Z M 4.71044921875 10.3727678571429  C 4.77848307291667 10.2879464285714  4.8125 10.1875  4.8125 10.0714285714286  L 4.8125 7.28571428571429  C 4.8125 7.16964285714286  4.77848307291667 7.06919642857143  4.71044921875 6.984375  C 4.64241536458333 6.89955357142857  4.56184895833333 6.85714285714286  4.46875 6.85714285714286  C 4.37565104166667 6.85714285714286  4.29508463541667 6.89955357142857  4.22705078125 6.984375  C 4.15901692708333 7.06919642857143  4.125 7.16964285714286  4.125 7.28571428571429  L 4.125 10.0714285714286  C 4.125 10.1875  4.15901692708333 10.2879464285714  4.22705078125 10.3727678571429  C 4.29508463541667 10.4575892857143  4.37565104166667 10.5  4.46875 10.5  C 4.56184895833333 10.5  4.64241536458333 10.4575892857143  4.71044921875 10.3727678571429  Z M 6.77294921875 10.3727678571429  C 6.84098307291667 10.2879464285714  6.875 10.1875  6.875 10.0714285714286  L 6.875 7.28571428571429  C 6.875 7.16964285714286  6.84098307291667 7.06919642857143  6.77294921875 6.984375  C 6.70491536458333 6.89955357142857  6.62434895833333 6.85714285714286  6.53125 6.85714285714286  C 6.43815104166667 6.85714285714286  6.35758463541667 6.89955357142857  6.28955078125 6.984375  C 6.22151692708333 7.06919642857143  6.1875 7.16964285714286  6.1875 7.28571428571429  L 6.1875 10.0714285714286  C 6.1875 10.1875  6.22151692708333 10.2879464285714  6.28955078125 10.3727678571429  C 6.35758463541667 10.4575892857143  6.43815104166667 10.5  6.53125 10.5  C 6.62434895833333 10.5  6.70491536458333 10.4575892857143  6.77294921875 10.3727678571429  Z M 8.655517578125 10.3861607142857  C 8.72176106770833 10.3102678571429  8.75846354166667 10.2165178571429  8.765625 10.1049107142857  L 8.9375 7.31919642857143  C 8.94466145833333 7.203125  8.91691080729167 7.09933035714286  8.854248046875 7.0078125  C 8.79158528645833 6.91629464285714  8.71370442708333 6.86607142857143  8.62060546875 6.85714285714286  C 8.52750651041667 6.84821428571428  8.44425455729167 6.8828125  8.370849609375 6.9609375  C 8.29744466145833 7.0390625  8.25716145833333 7.13616071428571  8.25 7.25223214285714  L 8.078125 10.0379464285714  C 8.07096354166667 10.1540178571429  8.09871419270833 10.2578125  8.161376953125 10.3493303571429  C 8.22403971354167 10.4408482142857  8.30192057291667 10.4910714285714  8.39501953125 10.5  L 8.421875 10.5  C 8.51139322916667 10.5  8.58927408854167 10.4620535714286  8.655517578125 10.3861607142857  Z M 2.801025390625 1.47321428571429  C 2.677490234375 1.59821428571428  2.59602864583333 1.75892857142857  2.556640625 1.95535714285714  L 2.05712890625 4.71428571428572  L 1.34814453125 4.71428571428572  L 1.890625 1.76116071428571  C 1.95865885416667 1.36830357142857  2.11800130208333 1.04799107142857  2.36865234375 0.800223214285715  C 2.61930338541667 0.552455357142857  2.90576171875 0.428571428571428  3.22802734375 0.428571428571428  L 4.125 0.428571428571428  C 4.125 0.3125  4.15901692708333 0.21205357142857  4.22705078125 0.127232142857143  C 4.29508463541667 0.0424107142857153  4.37565104166667 0  4.46875 0  L 6.53125 0  C 6.62434895833333 0  6.70491536458333 0.0424107142857153  6.77294921875 0.127232142857143  C 6.84098307291667 0.21205357142857  6.875 0.3125  6.875 0.428571428571428  L 7.77197265625 0.428571428571428  C 8.09423828125 0.428571428571428  8.38069661458333 0.552455357142857  8.63134765625 0.800223214285715  C 8.88199869791667 1.04799107142857  9.04134114583333 1.36830357142857  9.109375 1.76116071428571  L 9.65185546875 4.71428571428572  L 8.94287109375 4.71428571428572  L 8.443359375 1.95535714285714  C 8.40397135416667 1.75892857142857  8.322509765625 1.59821428571428  8.198974609375 1.47321428571429  C 8.075439453125 1.34821428571429  7.93310546875 1.28571428571429  7.77197265625 1.28571428571429  L 6.875 1.28571428571429  C 6.875 1.40178571428571  6.84098307291667 1.50223214285714  6.77294921875 1.58705357142857  C 6.70491536458333 1.671875  6.62434895833333 1.71428571428571  6.53125 1.71428571428571  L 4.46875 1.71428571428571  C 4.37565104166667 1.71428571428571  4.29508463541667 1.671875  4.22705078125 1.58705357142857  C 4.15901692708333 1.50223214285714  4.125 1.40178571428571  4.125 1.28571428571429  L 3.22802734375 1.28571428571429  C 3.06689453125 1.28571428571429  2.924560546875 1.34821428571429  2.801025390625 1.47321428571429  Z " fill-rule="nonzero" fill="#000000" stroke="none" transform="matrix(1 0 0 1 144 1068 )" />
  </g>
</svg>