<?xml version="1.0" encoding="utf-8"?>
<svg version="1.1" xmlns:xlink="http://www.w3.org/1999/xlink" width="20px" height="20px" xmlns="http://www.w3.org/2000/svg">
  <g transform="matrix(1 0 0 1 -388 -12 )">
    <path d="M 17.1251548946716 11.4263445050663  C 17.1334159438249 11.4471291244479  17.1375464684015 11.4783060535204  17.1375464684015 11.5198752922837  L 17.1375464684015 19.0023382696804  C 17.1375464684015 19.272538321642  17.0590665014457 19.5063652896856  16.9021065675341 19.7038191738114  C 16.7451466336225 19.9012730579371  16.5592730276745 20  16.3444857496902 20  L 11.5861214374226 20  L 11.5861214374226 14.0140296180826  L 8.41387856257745 14.0140296180826  L 8.41387856257745 20  L 3.65551425030979 20  C 3.44072697232549 20  3.25485336637753 19.9012730579371  3.09789343246592 19.7038191738114  C 2.94093349855432 19.5063652896856  2.86245353159851 19.272538321642  2.86245353159851 19.0023382696804  L 2.86245353159851 11.5198752922837  C 2.86245353159851 11.5094829825929  2.86451879388682 11.4938945180566  2.86864931846345 11.473109898675  C 2.87277984304007 11.4523252792933  2.87484510532838 11.4367368147571  2.87484510532838 11.4263445050663  L 10 4.03741231488698  L 17.1251548946716 11.4263445050663  Z M 19.9876084262701 10.0779423226812  C 19.9958694754234 10.2182385035074  19.966955803387 10.3403481423746  19.9008674101611 10.4442712392829  L 19.1325898389095 11.5978176149649  C 19.0665014456836 11.6913484021824  18.9797604295746 11.7485061054819  18.8723667905824 11.7692907248636  L 18.8351920693928 11.7692907248636  C 18.7277984304007 11.7692907248636  18.6410574142916 11.7329176409457  18.5749690210657 11.6601714731099  L 10 2.66562743569758  L 1.42503097893432 11.6601714731099  C 1.32589838909542 11.7433099506365  1.22676579925651 11.7796830345544  1.1276332094176 11.7692907248636  C 1.02023957042544 11.7485061054819  0.933498554316398 11.6913484021824  0.867410161090458 11.5978176149649  L 0.0991325898389095 10.4442712392829  C 0.0330441966129699 10.3403481423746  0.00413052457662126 10.2182385035074  0.0123915737298637 10.0779423226812  C 0.0206526228831062 9.93764614185503  0.0660883932259397 9.82592881267862  0.148698884758364 9.74279033515199  L 9.05824039653036 0.405300077942323  C 9.32259396943412 0.135100025980772  9.63651383725733 0  10 0  C 10.3634861627427 0  10.6774060305659 0.135100025980772  10.9417596034696 0.405300077942323  L 13.9653035935564 3.58534684333593  L 13.9653035935564 0.54559625876851  C 13.9653035935564 0.400103923096906  14.002478314746 0.280592361652376  14.0768277571252 0.187061574434919  C 14.1511771995043 0.0935307872174596  14.2461792647666 0.0467653936087298  14.361833952912 0.0467653936087298  L 16.7410161090459 0.0467653936087298  C 16.8566707971912 0.0467653936087298  16.9516728624535 0.0935307872174596  17.0260223048327 0.187061574434919  C 17.1003717472119 0.280592361652376  17.1375464684015 0.400103923096906  17.1375464684015 0.54559625876851  L 17.1375464684015 6.90568978955573  L 19.8513011152416 9.74279033515199  C 19.9339116067741 9.82592881267862  19.9793473771169 9.93764614185503  19.9876084262701 10.0779423226812  Z " fill-rule="nonzero" fill="#000000" stroke="none" transform="matrix(1 0 0 1 388 12 )" />
  </g>
</svg>