<?xml version="1.0" encoding="utf-8"?>
<svg version="1.1" xmlns:xlink="http://www.w3.org/1999/xlink" width="13px" height="14px" xmlns="http://www.w3.org/2000/svg">
  <g transform="matrix(1 0 0 1 -128 -16 )">
    <path d="M 11.1313506815366 7.99844115354638  C 11.1367203634862 8.01299038711354  11.139405204461 8.03481423746428  11.139405204461 8.0639127045986  L 11.139405204461 13.3016367887763  C 11.139405204461 13.4907768251494  11.0883932259397 13.6544557027799  10.9863692688971 13.792673421668  C 10.8843453118546 13.930891140556  10.7635274679884 14  10.6239157372986 14  L 7.53097893432466 14  L 7.53097893432466 9.80982073265783  L 5.46902106567534 9.80982073265783  L 5.46902106567534 14  L 2.37608426270136 14  C 2.23647253201157 14  2.11565468814539 13.930891140556  2.01363073110285 13.792673421668  C 1.91160677406031 13.6544557027799  1.86059479553903 13.4907768251494  1.86059479553903 13.3016367887763  L 1.86059479553903 8.0639127045986  C 1.86059479553903 8.05663808781502  1.86193721602644 8.04572616263965  1.86462205700124 8.03117692907249  C 1.86730689797604 8.01662769550533  1.86864931846344 8.00571577032996  1.86864931846344 7.99844115354638  L 6.5 2.82618862042089  L 11.1313506815366 7.99844115354638  Z M 12.9919454770756 7.05455962587685  C 12.9973151590252 7.15276695245518  12.9785212722016 7.23824369966225  12.9355638166047 7.31098986749805  L 12.4361833952912 8.11847233047545  C 12.3932259396943 8.18394388152767  12.3368442792235 8.22395427383736  12.2670384138786 8.23850350740452  L 12.2428748451053 8.23850350740452  C 12.1730689797604 8.23850350740452  12.1166873192896 8.21304234866199  12.0737298636927 8.16212003117693  L 6.5 1.86593920498831  L 0.926270136307311 8.16212003117693  C 0.86183395291202 8.22031696544557  0.797397769516729 8.2457781241881  0.732961586121437 8.23850350740452  C 0.663155720776539 8.22395427383736  0.606774060305659 8.18394388152767  0.563816604708798 8.11847233047545  L 0.0644361833952912 7.31098986749805  C 0.0214787277984304 7.23824369966225  0.00268484097480382 7.15276695245518  0.0080545229244114 7.05455962587685  C 0.013424204874019 6.95635229929852  0.0429574555968608 6.87815016887503  0.0966542750929368 6.81995323460639  L 5.88785625774473 0.283710054559626  C 6.05968608013218 0.0945700181865405  6.26373399421727 0  6.5 0  C 6.73626600578274 0  6.94031391986782 0.0945700181865405  7.11214374225527 0.283710054559626  L 9.07744733581165 2.50974279033515  L 9.07744733581165 0.381917381137957  C 9.07744733581165 0.280072746167834  9.10161090458488 0.196414653156664  9.14993804213135 0.130943102104443  C 9.19826517967782 0.0654715510522217  9.26001652209831 0.0327357755261108  9.33519206939281 0.0327357755261108  L 10.8816604708798 0.0327357755261108  C 10.9568360181743 0.0327357755261108  11.0185873605948 0.0654715510522217  11.0669144981413 0.130943102104443  C 11.1152416356877 0.196414653156664  11.139405204461 0.280072746167834  11.139405204461 0.381917381137957  L 11.139405204461 4.83398285268901  L 12.9033457249071 6.81995323460639  C 12.9570425444031 6.87815016887503  12.986575795126 6.95635229929852  12.9919454770756 7.05455962587685  Z " fill-rule="nonzero" fill="#000000" stroke="none" transform="matrix(1 0 0 1 128 16 )" />
  </g>
</svg>