<?xml version="1.0" encoding="utf-8"?>
<svg version="1.1" xmlns:xlink="http://www.w3.org/1999/xlink" width="20px" height="20px" xmlns="http://www.w3.org/2000/svg">
  <g transform="matrix(1 0 0 1 -252 -1458 )">
    <path d="M 1.25 8.57142857142857  L 18.75 8.57142857142857  C 19.0950520833333 8.57142857142857  19.3896484375 8.7109375  19.6337890625 8.98995535714286  C 19.8779296875 9.26897321428571  20 9.60565476190476  20 10  C 20 10.3943452380952  19.8779296875 10.7310267857143  19.6337890625 11.0100446428571  C 19.3896484375 11.2890625  19.0950520833333 11.4285714285714  18.75 11.4285714285714  L 18.603515625 11.4285714285714  L 17.48046875 18.8169642857143  C 17.4283854166667 19.1592261904762  17.28515625 19.4419642857143  17.05078125 19.6651785714286  C 16.81640625 19.8883928571429  16.5494791666667 20  16.25 20  L 3.75 20  C 3.45052083333333 20  3.18359375 19.8883928571429  2.94921875 19.6651785714286  C 2.71484375 19.4419642857143  2.57161458333333 19.1592261904762  2.51953125 18.8169642857143  L 1.396484375 11.4285714285714  L 1.25 11.4285714285714  C 0.904947916666667 11.4285714285714  0.6103515625 11.2890625  0.3662109375 11.0100446428571  C 0.1220703125 10.7310267857143  0 10.3943452380952  0 10  C 0 9.60565476190476  0.1220703125 9.26897321428571  0.3662109375 8.98995535714286  C 0.6103515625 8.7109375  0.904947916666667 8.57142857142857  1.25 8.57142857142857  Z M 4.6875 17.5  L 4.736328125 17.5  C 4.90559895833333 17.485119047619  5.04720052083333 17.4014136904762  5.1611328125 17.2488839285714  C 5.27506510416667 17.0963541666667  5.32552083333333 16.9233630952381  5.3125 16.7299107142857  L 5 12.0870535714286  C 4.98697916666667 11.8936011904762  4.91373697916667 11.7317708333333  4.7802734375 11.6015625  C 4.64680989583333 11.4713541666667  4.49544270833333 11.4136904761905  4.326171875 11.4285714285714  C 4.15690104166667 11.4434523809524  4.01529947916667 11.5271577380952  3.9013671875 11.6796875  C 3.78743489583333 11.8322172619048  3.73697916666667 12.0052083333333  3.75 12.1986607142857  L 4.0625 16.8415178571429  C 4.07552083333333 17.0275297619048  4.14225260416667 17.1837797619048  4.2626953125 17.3102678571429  C 4.38313802083333 17.436755952381  4.52473958333333 17.5  4.6875 17.5  Z M 8.564453125 17.2879464285714  C 8.68815104166667 17.1465773809524  8.75 16.9791666666667  8.75 16.7857142857143  L 8.75 12.1428571428571  C 8.75 11.9494047619048  8.68815104166667 11.781994047619  8.564453125 11.640625  C 8.44075520833334 11.499255952381  8.29427083333334 11.4285714285714  8.125 11.4285714285714  C 7.95572916666667 11.4285714285714  7.80924479166667 11.499255952381  7.685546875 11.640625  C 7.56184895833333 11.781994047619  7.5 11.9494047619048  7.5 12.1428571428571  L 7.5 16.7857142857143  C 7.5 16.9791666666667  7.56184895833333 17.1465773809524  7.685546875 17.2879464285714  C 7.80924479166667 17.4293154761905  7.95572916666667 17.5  8.125 17.5  C 8.29427083333334 17.5  8.44075520833334 17.4293154761905  8.564453125 17.2879464285714  Z M 12.314453125 17.2879464285714  C 12.4381510416667 17.1465773809524  12.5 16.9791666666667  12.5 16.7857142857143  L 12.5 12.1428571428571  C 12.5 11.9494047619048  12.4381510416667 11.781994047619  12.314453125 11.640625  C 12.1907552083333 11.499255952381  12.0442708333333 11.4285714285714  11.875 11.4285714285714  C 11.7057291666667 11.4285714285714  11.5592447916667 11.499255952381  11.435546875 11.640625  C 11.3118489583333 11.781994047619  11.25 11.9494047619048  11.25 12.1428571428571  L 11.25 16.7857142857143  C 11.25 16.9791666666667  11.3118489583333 17.1465773809524  11.435546875 17.2879464285714  C 11.5592447916667 17.4293154761905  11.7057291666667 17.5  11.875 17.5  C 12.0442708333333 17.5  12.1907552083333 17.4293154761905  12.314453125 17.2879464285714  Z M 15.7373046875 17.3102678571429  C 15.8577473958333 17.1837797619048  15.9244791666667 17.0275297619048  15.9375 16.8415178571429  L 16.25 12.1986607142857  C 16.2630208333333 12.0052083333333  16.2125651041667 11.8322172619048  16.0986328125 11.6796875  C 15.9847005208333 11.5271577380952  15.8430989583333 11.4434523809524  15.673828125 11.4285714285714  C 15.5045572916667 11.4136904761905  15.3531901041667 11.4713541666667  15.2197265625 11.6015625  C 15.0862630208333 11.7317708333333  15.0130208333333 11.8936011904762  15 12.0870535714286  L 14.6875 16.7299107142857  C 14.6744791666667 16.9233630952381  14.7249348958333 17.0963541666667  14.8388671875 17.2488839285714  C 14.9527994791667 17.4014136904762  15.0944010416667 17.485119047619  15.263671875 17.5  L 15.3125 17.5  C 15.4752604166667 17.5  15.6168619791667 17.436755952381  15.7373046875 17.3102678571429  Z M 5.0927734375 2.45535714285714  C 4.8681640625 2.66369047619047  4.72005208333333 2.93154761904762  4.6484375 3.25892857142857  L 3.740234375 7.85714285714286  L 2.451171875 7.85714285714286  L 3.4375 2.93526785714286  C 3.56119791666667 2.28050595238095  3.85091145833333 1.74665178571429  4.306640625 1.33370535714286  C 4.76236979166667 0.920758928571428  5.283203125 0.714285714285714  5.869140625 0.714285714285714  L 7.5 0.714285714285714  C 7.5 0.520833333333333  7.56184895833333 0.353422619047616  7.685546875 0.212053571428572  C 7.80924479166667 0.0706845238095255  7.95572916666667 0  8.125 0  L 11.875 0  C 12.0442708333333 0  12.1907552083333 0.0706845238095255  12.314453125 0.212053571428572  C 12.4381510416667 0.353422619047616  12.5 0.520833333333333  12.5 0.714285714285714  L 14.130859375 0.714285714285714  C 14.716796875 0.714285714285714  15.2376302083333 0.920758928571428  15.693359375 1.33370535714286  C 16.1490885416667 1.74665178571429  16.4388020833333 2.28050595238095  16.5625 2.93526785714286  L 17.548828125 7.85714285714286  L 16.259765625 7.85714285714286  L 15.3515625 3.25892857142857  C 15.2799479166667 2.93154761904762  15.1318359375 2.66369047619047  14.9072265625 2.45535714285714  C 14.6826171875 2.24702380952381  14.423828125 2.14285714285714  14.130859375 2.14285714285714  L 12.5 2.14285714285714  C 12.5 2.33630952380952  12.4381510416667 2.50372023809524  12.314453125 2.64508928571429  C 12.1907552083333 2.78645833333333  12.0442708333333 2.85714285714286  11.875 2.85714285714286  L 8.125 2.85714285714286  C 7.95572916666667 2.85714285714286  7.80924479166667 2.78645833333333  7.685546875 2.64508928571429  C 7.56184895833333 2.50372023809524  7.5 2.33630952380952  7.5 2.14285714285714  L 5.869140625 2.14285714285714  C 5.576171875 2.14285714285714  5.3173828125 2.24702380952381  5.0927734375 2.45535714285714  Z " fill-rule="nonzero" fill="#000000" stroke="none" transform="matrix(1 0 0 1 252 1458 )" />
  </g>
</svg>